<?xml version="1.0" encoding="utf-8"?>
<!-- Generator: Adobe Illustrator 19.1.0, SVG Export Plug-In . SVG Version: 6.00 Build 0)  -->
<svg version="1.1" xmlns="http://www.w3.org/2000/svg" xmlns:xlink="http://www.w3.org/1999/xlink" x="0px" y="0px"
	 viewBox="0 0 1000 800" style="enable-background:new 0 0 1000 800;" xml:space="preserve">
<style type="text/css">
	.st0{fill:#FCF5EA;}
	.st1{fill:#D9A128;}
	.st2{fill:#FCF5EA;stroke:#D9A128;stroke-width:3;stroke-miterlimit:10;}
	.st3{fill:#ECCA8D;stroke:#D9A128;stroke-width:2;stroke-miterlimit:10;}
	.st4{fill:#ECCA8D;stroke:#D9A128;stroke-width:3;stroke-linecap:round;stroke-linejoin:round;stroke-miterlimit:10;}
	.st5{fill:#D9A128;stroke:#D9A128;stroke-width:2;stroke-linecap:round;stroke-linejoin:round;stroke-miterlimit:10;}
	.st6{fill:#FFFFFF;stroke:#D9A128;stroke-width:5;stroke-miterlimit:10;}
	.st7{fill:none;stroke:#D9A128;stroke-width:2;stroke-linecap:round;stroke-linejoin:round;stroke-miterlimit:10;}
	.st8{fill:#FFFFFF;stroke:#D9A128;stroke-width:3;stroke-miterlimit:10;}
	.st9{opacity:0.4;clip-path:url(#XMLID_4_);fill:#FCF5EA;}
	.st10{fill:#FFFFFF;stroke:#D9A128;stroke-width:2;stroke-miterlimit:10;}
	.st11{opacity:0.4;clip-path:url(#XMLID_5_);fill:#FCF5EA;}
	.st12{fill:#FFFFFF;}
	.st13{fill:#ECCA8D;stroke:#D9A128;stroke-linecap:round;stroke-linejoin:round;stroke-miterlimit:10;}
	.st14{fill:#FFFFFF;stroke:#D9A128;stroke-miterlimit:10;}
	.st15{fill:#D9A228;}
	.st16{fill:#FCF5EA;stroke:#D9A128;stroke-width:2;stroke-linecap:round;stroke-linejoin:round;stroke-miterlimit:10;}
	.st17{fill:#ECCA8D;}
	.st18{fill:#FFFFFF;stroke:#D9A128;stroke-linecap:round;stroke-linejoin:round;stroke-miterlimit:10;}
	.st19{display:none;fill:#ECCA8D;stroke:#D9A128;stroke-width:2;stroke-miterlimit:10;}
	.st20{font-family:'Muli-SemiBold';}
	.st21{font-size:23px;}
	.st22{display:none;opacity:0.1;}
	.st23{fill:#ECCA8D;stroke:#D9A128;stroke-width:3;stroke-miterlimit:10;}
	.st24{fill:none;stroke:#D9A128;stroke-width:3;stroke-linecap:round;stroke-linejoin:round;stroke-miterlimit:10;}
	.st25{fill:#FCF5EA;stroke:#D9A128;stroke-width:2;stroke-miterlimit:10;}
	.st26{fill:#FFFFFF;stroke:#D9A128;stroke-width:2;stroke-linecap:round;stroke-linejoin:round;stroke-miterlimit:10;}
	.st27{fill:#FCF5EA;stroke:#D9A128;stroke-linecap:round;stroke-linejoin:round;stroke-miterlimit:10;}
	.st28{fill:#FCF5EA;stroke:#D9A128;stroke-width:3;stroke-linecap:round;stroke-linejoin:round;stroke-miterlimit:10;}
	.st29{fill:#D9A128;stroke:#D9A128;stroke-width:3;stroke-linecap:round;stroke-linejoin:round;stroke-miterlimit:10;}
	.st30{fill:#ECCA8D;stroke:#D9A128;stroke-width:5;stroke-miterlimit:10;}
	.st31{fill:#FCF5EA;stroke:#D9A128;stroke-miterlimit:10;}
	.st32{fill:none;stroke:#D9A128;stroke-miterlimit:10;}
	.st33{fill:none;stroke:#D9A128;stroke-linecap:round;stroke-linejoin:round;stroke-miterlimit:10;}
	.st34{display:none;fill:none;stroke:#D9A128;stroke-linecap:round;stroke-linejoin:round;stroke-miterlimit:10;}
	.st35{fill:none;stroke:#D9A128;stroke-width:3;stroke-miterlimit:10;}
</style>
<g id="Line_Illustration">
	<rect id="BG" class="st0" width="1000" height="800"/>
	<g>
		<g id="pencil">
			<path class="st1" d="M204.2,435.5c1.3,0,2.4,1.3,2.4,2.8l0,15.7c0,1.5-1.1,2.8-2.4,2.8l-11.8,0c-1.3,0-2.4-1.3-2.4-2.8l0-15.7
				c0-1.5,1.1-2.8,2.4-2.8L204.2,435.5z"/>
			<polygon class="st2" points="170.3,455.2 119.8,455.2 108.8,446.1 120,436.9 170.3,437 193.2,437 193.2,455.3 			"/>
			<polygon class="st3" points="120.3,455.2 118.8,455.2 107.8,446.1 119,436.9 120.2,436.9 119,442.7 120.2,442.5 118.9,448.3 
				120.3,448.3 			"/>
			<g>
				<polygon class="st1" points="111.4,449.1 111.4,443.1 106.8,446.1 				"/>
				<polygon class="st1" points="111.4,445 106.8,446.1 111.4,443.1 				"/>
			</g>
		</g>
		<g id="watch">
			<path class="st4" d="M722.9,381.6c0,3.7-3,6.6-6.6,6.6h-14.1c-3.7,0-6.6-3-6.6-6.6v-64.3c0-3.7,3-6.6,6.6-6.6h14.1
				c3.7,0,6.6,3,6.6,6.6V381.6z"/>
			<path class="st4" d="M723.3,453.2c0,3.7-3,6.6-6.6,6.6h-14.1c-3.7,0-6.6-3-6.6-6.6v-64.3c0-3.7,3-6.6,6.6-6.6h14.1
				c3.7,0,6.6,3,6.6,6.6V453.2z"/>
			<rect x="732.2" y="381.1" class="st5" width="5" height="4.3"/>
			<path class="st6" d="M687.1,383.3c0,12.3,10,22.2,22.2,22.2c12.3,0,22.2-10,22.2-22.2c0-12.3-10-22.2-22.2-22.2
				C697,361.1,687.1,371,687.1,383.3z"/>
			<circle class="st1" cx="709.4" cy="383.9" r="2.8"/>
			
				<rect x="710.4" y="381.2" transform="matrix(0.8463 -0.5327 0.5327 0.8463 -93.4499 438.9035)" class="st7" width="6.9" height="0.4"/>
			<rect x="709.1" y="373" class="st7" width="0.5" height="9.4"/>
			<g>
				<rect x="709.2" y="410.5" class="st1" width="0.8" height="4.2"/>
				<rect x="709.2" y="415.8" class="st1" width="0.8" height="4.2"/>
				<rect x="709.2" y="421.1" class="st1" width="0.8" height="4.2"/>
				<rect x="709.2" y="426.4" class="st1" width="0.8" height="4.2"/>
				<rect x="709.2" y="431.7" class="st1" width="0.8" height="4.2"/>
				<rect x="709.2" y="437" class="st1" width="0.8" height="4.2"/>
				<rect x="709.2" y="442.3" class="st1" width="0.8" height="4.2"/>
			</g>
			<g>
				<rect x="708.8" y="320.4" class="st1" width="0.8" height="4.2"/>
				<rect x="708.8" y="325.7" class="st1" width="0.8" height="4.2"/>
				<rect x="708.8" y="331" class="st1" width="0.8" height="4.2"/>
				<rect x="708.8" y="336.3" class="st1" width="0.8" height="4.2"/>
				<rect x="708.8" y="341.6" class="st1" width="0.8" height="4.2"/>
				<rect x="708.8" y="346.9" class="st1" width="0.8" height="4.2"/>
				<rect x="708.8" y="352.2" class="st1" width="0.8" height="4.2"/>
			</g>
			<rect x="695.5" y="321" class="st5" width="26.6" height="4.8"/>
		</g>
		<g id="row2">
			<g id="ipad">
				<path class="st8" d="M381.2,628.6c0,2.2-1.8,4-4,4H252.7c-2.2,0-4-1.8-4-4V462.3c0-2.2,1.8-4,4-4h124.6c2.2,0,4,1.8,4,4V628.6z"
					/>
				<g>
					<defs>
						<rect id="XMLID_1_" x="262.3" y="474.2" width="105.4" height="142.5"/>
					</defs>
					<use xlink:href="#XMLID_1_"  style="overflow:visible;fill:#ECCA8D;"/>
					<clipPath id="XMLID_4_">
						<use xlink:href="#XMLID_1_"  style="overflow:visible;"/>
					</clipPath>
					<polygon class="st9" points="252.3,471.5 252.3,621.5 303.3,621.5 344.3,473.5 346.3,466.5 					"/>
					
						<use xlink:href="#XMLID_1_"  style="overflow:visible;fill:none;stroke:#D9A128;stroke-width:2;stroke-linecap:round;stroke-linejoin:round;stroke-miterlimit:10;"/>
				</g>
				<rect x="312.8" y="465.1" class="st1" width="2.5" height="2.5"/>
				<circle class="st10" cx="315" cy="624.2" r="3.8"/>
			</g>
			<g id="mobile_1_">
				<path class="st8" d="M479.7,631.1c0,2.3-1.8,4.1-4.1,4.1h-59.8c-2.3,0-4.1-1.9-4.1-4.1V504c0-2.3,1.8-4.1,4.1-4.1h59.8
					c2.3,0,4.1,1.9,4.1,4.1V631.1z"/>
				<g>
					<defs>
						<rect id="XMLID_2_" x="418.4" y="518" width="54.7" height="100.3"/>
					</defs>
					<use xlink:href="#XMLID_2_"  style="overflow:visible;fill:#ECCA8D;"/>
					<clipPath id="XMLID_5_">
						<use xlink:href="#XMLID_2_"  style="overflow:visible;"/>
					</clipPath>
					<polygon class="st11" points="415.6,619.2 415.6,516 455.9,516 433.3,619.7 					"/>
					<use xlink:href="#XMLID_2_"  style="overflow:visible;fill:none;stroke:#D9A128;stroke-width:2;stroke-miterlimit:10;"/>
				</g>
				<g>
					<rect x="440.5" y="510.4" class="st1" width="10.4" height="1.8"/>
					<rect x="444.5" y="505.5" class="st1" width="2" height="2"/>
				</g>
				<circle class="st10" cx="445.7" cy="626.6" r="3.2"/>
			</g>
			<g id="wacom">
				<path id="BG_2_" class="st2" d="M896.7,636.3h-182c-1.7,0-3-1.3-3-3V516c0-1.7,1.3-3,3-3h182c1.6,0,3,1.3,3,3v117.3
					C899.7,635,898.3,636.3,896.7,636.3z"/>
				<rect id="screen" x="761.2" y="529.1" class="st4" width="127" height="74"/>
				<rect x="797.3" y="617.9" class="st12" width="18.5" height="4.3"/>
				<g>
					<rect x="719.6" y="528.1" class="st13" width="21.5" height="37.4"/>
					<g>
						<rect x="722.4" y="558.5" class="st14" width="16" height="4.8"/>
						<rect x="722.4" y="530.4" class="st14" width="7" height="26.5"/>
						<rect x="731.4" y="530.4" class="st14" width="7" height="12.4"/>
						<rect x="731.4" y="544.4" class="st14" width="7" height="12.4"/>
					</g>
					<rect x="745.2" y="527.7" class="st15" width="7.5" height="38.2"/>
				</g>
				<rect x="820.8" y="521.1" class="st1" width="7.6" height="2.8"/>
			</g>
			<g id="pen">
				<path class="st16" d="M833.3,626.5h-11.8c-1.7,0-3-1.4-3-3v-7.4c0-1.7,1.3-3,3-3h11.8c1.6,0,3,1.3,3,3v7.4
					C836.3,625.2,835,626.5,833.3,626.5z"/>
				<polygon class="st16" points="681.1,618.1 684.6,618.1 694.7,613.1 826.9,613.1 827.5,613.1 827.5,626.5 694.2,626.5 
					684.5,621.6 681.1,621.3 				"/>
				<rect x="695.9" y="614.1" class="st17" width="123.7" height="11.3"/>
				<rect x="695.7" y="613.4" class="st1" width="69.1" height="12.3"/>
				<polygon class="st17" points="695.9,613.1 684.9,618.1 681.1,618.1 681.1,621.3 684.8,621.6 695.9,626.5 				"/>
				<rect x="701.3" y="617.4" class="st18" width="30.5" height="5.1"/>
				<rect x="704.1" y="619" class="st13" width="11" height="1.9"/>
				<rect x="819.5" y="614" class="st1" width="7.2" height="12"/>
			</g>
			<g id="apple_tv">
				<path class="st3" d="M610.8,625c0,3.7-3,6.6-6.6,6.6h-87c-3.7,0-6.6-3-6.6-6.6v-84.8c0-3.7,3-6.6,6.6-6.6h87
					c3.7,0,6.6,3,6.6,6.6V625z"/>
				<path class="st19" d="M603.3,618.7c0,3.1-2.5,5.6-5.6,5.6h-74c-3.1,0-5.6-2.5-5.6-5.6v-72.1c0-3.1,2.5-5.6,5.6-5.6h74
					c3.1,0,5.6,2.5,5.6,5.6V618.7z"/>
				<g>
					<g id="apple_logo_3_">
						<path class="st1" d="M555,576.6c0,0-5.2,3.9,0.6,8.2c0,0-1.9,5.4-4.6,5.6c0,0-1.7-0.4-2.5-0.7c0,0-1.7-0.5-3.5,0.8
							c0,0-2.1,0.1-2.5-0.6c0,0-2.8-2.3-3.7-6.7c0,0-1.6-5.8,3.4-8.1c0,0,1.6-0.9,4.3,0.5c0,0,1.3,0.2,3.1-0.6
							C549.7,574.8,552.3,573.6,555,576.6z"/>
						<path class="st1" d="M546.5,574.3c0,0-0.4-4.4,4.5-5.3C551,569,552,573.6,546.5,574.3z"/>
					</g>
					<text transform="matrix(1 0 0 1 561.0619 589.0958)" class="st1 st20 st21">tv</text>
				</g>
			</g>
			<g id="Remote">
				<path class="st22" d="M629,631.7l7,9.1h19c0,0,14.5,2.5,13.6-11.7V519.6l-10.6-6.3L629,631.7z"/>
				<path class="st23" d="M659.9,627.8c0,3.7-3,6.6-6.6,6.6h-19c-3.7,0-6.6-3-6.6-6.6v-110c0-3.7,3-6.6,6.6-6.6h19
					c3.7,0,6.6,3,6.6,6.6V627.8z"/>
				<circle class="st10" cx="643.8" cy="537" r="11.3"/>
				<circle class="st1" cx="643.8" cy="537.4" r="5.3"/>
				<circle class="st10" cx="636.4" cy="555.9" r="5"/>
				<circle class="st10" cx="651.1" cy="555.9" r="5"/>
			</g>
		</g>
		<g id="Dairy">
			<path class="st4" d="M105.5,470.7v163.3c0,0,104.4,0,104.7,0c8.1,0,12.8-11.1,12.8-17.8c0-12.3,0-24.7,0-37c0-23.3,0-46.5,0-69.8
				c0-5.2,0.2-10.3,0.2-15.5c0-4.1,0.5-8.6-1.3-12.3c-2.7-5.4-7.7-11-14.1-11C207.7,470.7,105.5,470.7,105.5,470.7z"/>
			<line class="st24" x1="120.8" y1="471.3" x2="120.8" y2="633.7"/>
			<rect x="193.5" y="470.7" class="st25" width="14.2" height="163"/>
			<polygon class="st1" points="128.5,633.7 128.5,658.7 141,650.7 141,632.7 			"/>
		</g>
		<g id="camera">
			<path class="st4" d="M840.4,309.7c0,0,3.7-0.1,5.2,6.4c0,0,5.8,0.1,7.6,4.2v50.6c0,0,0.3,8.5-5.5,12.6v4h-68.8v-3
				c0,0-4-4.7-5.7-11.2v-53.5c0,0,3-4.8,8.2-3.7c0,0,1.4-5.9,5.5-6.4"/>
			<path class="st1" d="M779.2,387.5h68c0,0,2.7,0.6,3.7,4.4h-75.8C775.1,391.8,775.6,388.4,779.2,387.5z"/>
			<path class="st4" d="M775.1,391.7v4.6h-6.9c0,0-2.7,0.9-2.5,2.8l0,7.6c0,0-3.3,3.8-3.8,7.1c0,8.5,0,17,0,25.4
				c0,2.5,0.3,4.5,1.7,6.7c1,1.6,2.4,3,3.9,4.1c3.2,2.3,6.5,2.3,10.3,2.3c0,0,1.8,5,4.2,5.3h9.2c0,0,1.6,3.4,4.1,4.2h35.7
				c0,0,3-0.9,3.7-3.9h19c0,0,4-2.4,2.8-5.6c8.5,0,16.9,0,25.4,0c4.1,0,8.4,0.2,12.2-1.4c4-1.7,9.2-5.7,9.4-10.1l-2-29.6
				c0,0-3.5-26.6-15.9-32c-2.2-0.9-4.5-1.5-6.9-1.4c-5.8,0.3-10,5.6-10.7,11.1c-0.5,4.3-1.9,10.3-6.4,12.1c-0.4,0.2-0.9,0.3-1.4,0.4
				h-9.5v-10.2L775.1,391.7z"/>
			<rect x="778.8" y="385.8" class="st1" width="68.9" height="3.2"/>
			<path class="st4" d="M794.8,391.2l-3.4,62c0,0,1,3.1,3.4,3.7h37.1c0,0,3-1.2,2.7-3.7l-3.7-62c0,0-2.2-6.7-6.4-7.1h-21.8
				C802.6,384.1,796.7,384.8,794.8,391.2z"/>
			<path class="st4" d="M832.4,401.2c8.2,0,16.4,0,24.5,0c3.6,0,6,0.2,8.6-2.7c4.4-5.1,2.7-12.9,7.7-17.8c4.9-4.8,13.6-2.8,18.1,1.6
				c2.4,2.3,4.2,5.4,5.7,8.4c4.2,8.3,5.6,17.5,5.6,26.7c0,4.9,0,9.8,0,14.7c0,2.4,0,4.8,0,7.2c0,1.5,0.3,3.1-0.4,4.4
				c-2.3,4.6-8.8,5.7-13.3,5.4h-54C834.8,449.1,832.4,401.2,832.4,401.2z"/>
			<path class="st4" d="M793.2,401.9l-1.9,47.2c-3.4,0.1-6.9,0.2-10.3,0.4c-2.3,0.1-4.5,0.2-6.8,0.2c-6.5,0.2-11.5-5.8-12.6-12
				c0-5.2-0.1-10.4-0.1-15.5c0-3.3-0.4-6.9,0.5-10.1c0.9-2.7,2.4-5.3,4.6-7.2c4.3-3.7,10.2-3,15.4-3
				C785.8,401.9,789.5,401.9,793.2,401.9z"/>
			<path class="st16" d="M825.5,445.5c0,2.3-1.9,4.2-4.2,4.2h-16.6c-2.3,0-4.2-1.9-4.2-4.2v-7c0-2.3,1.9-4.2,4.2-4.2h16.6
				c2.3,0,4.2,1.9,4.2,4.2V445.5z"/>
			<circle class="st26" cx="880.8" cy="393" r="5.7"/>
			<path class="st26" d="M885.7,440.6c0,2.6-1.9,4.7-4.2,4.7h-33.2c-2.3,0-4.2-2.1-4.2-4.7v-7.5c0-2.6,1.9-4.7,4.2-4.7h33.2
				c2.3,0,4.2,2.1,4.2,4.7V440.6z"/>
			<circle class="st18" cx="872.7" cy="403.3" r="3.7"/>
			<circle class="st27" cx="889.7" cy="403.3" r="3.7"/>
			<rect x="773.2" y="321.7" class="st28" width="80" height="36"/>
			<g>
				<rect x="776.7" y="329" class="st1" width="1.9" height="19.1"/>
				<rect x="780.1" y="329" class="st1" width="1.9" height="19.1"/>
				<rect x="783.5" y="329" class="st1" width="1.9" height="19.1"/>
				<rect x="786.9" y="329" class="st1" width="1.9" height="19.1"/>
				<rect x="790.3" y="329" class="st1" width="1.9" height="19.1"/>
				<rect x="793.7" y="329" class="st1" width="1.9" height="19.1"/>
				<rect x="797.1" y="329" class="st1" width="1.9" height="19.1"/>
				<rect x="800.5" y="329" class="st1" width="1.9" height="19.1"/>
				<rect x="803.9" y="329" class="st1" width="1.9" height="19.1"/>
			</g>
			<g>
				<rect x="807.3" y="329" class="st1" width="1.9" height="19.1"/>
				<rect x="810.7" y="329" class="st1" width="1.9" height="19.1"/>
				<rect x="814.1" y="329" class="st1" width="1.9" height="19.1"/>
				<rect x="817.5" y="329" class="st1" width="1.9" height="19.1"/>
				<rect x="820.9" y="329" class="st1" width="1.9" height="19.1"/>
				<rect x="824.3" y="329" class="st1" width="1.9" height="19.1"/>
				<rect x="827.7" y="329" class="st1" width="1.9" height="19.1"/>
				<rect x="831.1" y="329" class="st1" width="1.9" height="19.1"/>
				<rect x="834.5" y="329" class="st1" width="1.9" height="19.1"/>
				<rect x="837.9" y="329" class="st1" width="1.9" height="19.1"/>
				<rect x="841.3" y="329" class="st1" width="1.9" height="19.1"/>
				<rect x="844.7" y="329" class="st1" width="1.9" height="19.1"/>
				<rect x="848.1" y="329" class="st1" width="1.9" height="19.1"/>
			</g>
			<g>
				<path class="st1" d="M762.3,419.5c5.2,0,9.3,4.2,9.3,9.3c0,5.2-4.2,9.3-9.3,9.3"/>
				<rect x="763.9" y="418.4" class="st18" width="2.5" height="21.4"/>
			</g>
			<rect x="773.2" y="320" class="st1" width="80" height="2.2"/>
			<g>
				<path class="st1" d="M901.2,419.5c-5.2,0-9.3,4.2-9.3,9.3c0,5.2,4.2,9.3,9.3,9.3"/>
				<rect x="896.3" y="418.4" class="st18" width="3.1" height="21.4"/>
			</g>
			<line class="st29" x1="787.7" y1="309.3" x2="841" y2="309.3"/>
		</g>
		<g id="photo">
			<g>
				
					<rect x="638.1" y="164" transform="matrix(0.7661 0.6428 -0.6428 0.7661 283.4226 -385.222)" class="st30" width="65.6" height="65.6"/>
				
					<rect x="608.6" y="221.7" transform="matrix(0.766 0.6428 -0.6428 0.766 297.7914 -360.3416)" class="st1" width="70.6" height="14.4"/>
			</g>
			<g>
				<g>
					<rect x="602.9" y="144" class="st30" width="65.6" height="65.6"/>
					<rect x="600.2" y="211.4" class="st1" width="70.6" height="13.7"/>
				</g>
			</g>
			<polygon class="st31" points="637.5,206.5 656.2,175.1 665.9,188.7 665.9,207.1 658.3,207.1 			"/>
			<polygon class="st31" points="619.9,207.2 642.2,177.3 659.8,207.2 			"/>
			<circle class="st31" cx="623.2" cy="161.5" r="5.3"/>
		</g>
		<g id="coffee">
			<path class="st32" d="M607.8,365.6c-2,1.8-4.4,3.2-7,4.3c-12.9,5.2-27.6-1-32.8-13.9c-5.2-12.9,1-27.6,13.9-32.8
				c12.9-5.2,27.6,1,32.8,13.9c1.9,4.8,2.3,9.8,1.3,14.5"/>
			<path id="Handle" class="st10" d="M519,335.2h12.2c1.4,0,2.6-1.2,2.6-2.6v-8c0-1.4-1.2-2.6-2.6-2.6H519c-1.4,0-2.6,1.2-2.6,2.6v8
				C516.4,334,517.6,335.2,519,335.2z"/>
			<circle class="st1" cx="615.7" cy="356.8" r="2.2"/>
			<circle class="st1" cx="615.4" cy="363.4" r="1.4"/>
			<circle class="st8" cx="566.5" cy="334.1" r="34.8"/>
			<circle class="st3" cx="566.5" cy="334.1" r="27.8"/>
			<path class="st25" d="M555.5,309.4c-1.8,0.5-3.4,1.4-4.8,2.5c-5.7,4.1-10.6,10-12,17.1c-0.8,4.1-0.2,8.4,1.2,12.2
				c0.7,2,1.6,3.9,2.7,5.7c0.5,0.9,1.1,1.7,1.7,2.5c1.4,1.9,4.3-1.1,5.5-2c1.1-0.8,2.3-1.6,3.3-2.6c2.9-2.8,4.1-5.2,3.4-9.2
				c-0.5-3.3-4.3-6.5-2.3-9.9c1.6-3,5.4-4.1,8.4-5.1c1.4-0.4,2.8-1.1,3.2-2.7c0.6-3-1.8-6.7-4.3-8.1
				C559.6,309,557.5,308.9,555.5,309.4z"/>
		</g>
		<g id="notes_1_">
			<rect x="487.6" y="176.7" class="st2" width="57" height="84.8"/>
			<g id="lines">
				<line class="st33" x1="488.8" y1="201.3" x2="544.6" y2="201.3"/>
				<line class="st34" x1="488.8" y1="193.3" x2="544.6" y2="193.3"/>
				<line class="st33" x1="488.8" y1="209.3" x2="544.6" y2="209.3"/>
				<line class="st33" x1="488.8" y1="217.3" x2="544.6" y2="217.3"/>
				<line class="st33" x1="488.8" y1="225.3" x2="544.6" y2="225.3"/>
				<line class="st33" x1="488.8" y1="233.3" x2="544.6" y2="233.3"/>
				<line class="st33" x1="488.8" y1="241.3" x2="544.6" y2="241.3"/>
				<line class="st33" x1="488.8" y1="249.3" x2="544.6" y2="249.3"/>
			</g>
			<g>
				<rect x="493.1" y="182" class="st1" width="4.8" height="4.1"/>
				<rect x="502.9" y="182" class="st1" width="4.8" height="4.1"/>
				<rect x="513.3" y="182" class="st1" width="4.8" height="4.1"/>
				<rect x="523.1" y="182" class="st1" width="4.8" height="4.1"/>
				<rect x="533.2" y="182" class="st1" width="4.8" height="4.1"/>
			</g>
			<g>
				<path class="st7" d="M497,185c-2.8,0-5.1-2.3-5.1-5.1c0-2.8,2.3-5.1,5.1-5.1"/>
				<path class="st7" d="M506.8,185c-2.8,0-5.1-2.3-5.1-5.1c0-2.8,2.3-5.1,5.1-5.1"/>
				<path class="st7" d="M517.2,185c-2.8,0-5.1-2.3-5.1-5.1c0-2.8,2.3-5.1,5.1-5.1"/>
				<path class="st7" d="M527,185c-2.8,0-5.1-2.3-5.1-5.1c0-2.8,2.3-5.1,5.1-5.1"/>
				<path class="st7" d="M537.3,185c-2.8,0-5.1-2.3-5.1-5.1c0-2.8,2.3-5.1,5.1-5.1"/>
			</g>
		</g>
		<g id="pendrive">
			<polygon class="st3" points="520.6,425.9 590.9,425.9 590.9,459.4 521.1,459.4 515.8,455.5 515.8,430.7 			"/>
			<path class="st2" d="M640.3,442.6c0,8.6-7.1,15.6-15.9,15.6h-55c-8.8,0-15.9-7-15.9-15.6l0,0c0-8.6,7.1-15.6,15.9-15.6h55
				C633.2,427,640.3,434,640.3,442.6L640.3,442.6z"/>
			<polyline class="st2" points="589.9,427.1 655.2,427.1 655.2,458.2 589.9,458.2 			"/>
			<circle class="st1" cx="570.7" cy="442.3" r="11.7"/>
			<rect x="496.8" y="433.6" class="st25" width="19" height="19"/>
			<rect x="504.3" y="436.9" class="st14" width="3.8" height="4"/>
			<rect x="504.3" y="445.5" class="st14" width="3.8" height="4"/>
		</g>
		<g id="mac">
			<g>
				<path class="st17" d="M371.3,377.5c0,2.2-1.8,4-4,4h-273c-2.2,0-4-1.8-4-4V219.8c0-2.2,1.8-4,4-4h273c2.2,0,4,1.8,4,4V377.5z"/>
				<path class="st35" d="M371.3,377.5c0,2.2-1.8,4-4,4h-273c-2.2,0-4-1.8-4-4V219.8c0-2.2,1.8-4,4-4h273c2.2,0,4,1.8,4,4V377.5z"/>
			</g>
			<g id="apple_logo_1_">
				<path class="st1" d="M241.4,294.5c0,0-7,5.2,0.8,11c0,0-2.5,7.2-6.2,7.4c0,0-2.2-0.5-3.3-1c0,0-2.3-0.6-4.7,1
					c0,0-2.8,0.1-3.3-0.9c0,0-3.7-3.1-4.9-9c0,0-2.2-7.8,4.6-10.9c0,0,2.1-1.1,5.8,0.7c0,0,1.7,0.3,4.2-0.8
					C234.3,292.1,237.9,290.4,241.4,294.5z"/>
				<path class="st1" d="M230.1,291.4c0,0-0.5-5.8,6.1-7.1C236.1,284.3,237.4,290.4,230.1,291.4z"/>
			</g>
		</g>
		<g id="mouse">
			<g>
				<path class="st0" d="M443.7,356.5c0,11.6-9.4,20.9-20.9,20.9l0,0c-11.6,0-20.9-9.4-20.9-20.9v-46c0-11.6,9.4-20.9,20.9-20.9l0,0
					c0.3,0,0.7,0,1,0c11.1,0.5,19.9,9.7,19.9,20.9V356.5z"/>
				<path class="st35" d="M443.7,356.5c0,11.6-9.4,20.9-20.9,20.9l0,0c-11.6,0-20.9-9.4-20.9-20.9v-46c0-11.6,9.4-20.9,20.9-20.9
					l0,0c0.3,0,0.7,0,1,0c11.1,0.5,19.9,9.7,19.9,20.9V356.5z"/>
			</g>
			<g id="apple_logo_2_">
				<path class="st1" d="M428.6,350.5c0,0-3.9,2.9,0.5,6.1c0,0-1.4,4-3.4,4.1c0,0-1.2-0.3-1.9-0.5c0,0-1.3-0.3-2.6,0.6
					c0,0-1.6,0.1-1.8-0.5c0,0-2.1-1.7-2.8-5c0,0-1.2-4.3,2.5-6c0,0,1.2-0.6,3.2,0.3c0,0,0.9,0.2,2.3-0.4
					C424.6,349.2,426.6,348.3,428.6,350.5z"/>
				<path class="st1" d="M422.3,348.8c0,0-0.3-3.2,3.3-4C425.6,344.9,426.3,348.3,422.3,348.8z"/>
			</g>
		</g>
	</g>
</g>
<g id="By_G.D.ANANTHA_KRISHNAN">
</g>
</svg>
