<?xml version="1.0" encoding="utf-8"?><!DOCTYPE svg PUBLIC "-//W3C//DTD SVG 1.1//EN" "http://www.w3.org/Graphics/SVG/1.1/DTD/svg11.dtd"><svg xmlns="http://www.w3.org/2000/svg" xmlns:xlink="http://www.w3.org/1999/xlink"><defs><svg viewBox="0 0 249 89" id="icon-app-store-en"><path class="aast0" d="M33.9 23.3h4.7c.3 0 .6-.3.6-.5 0-.3-.2-.6-.6-.6h-4.7c-.3 0-.5.3-.5.6 0 .2.3.5.5.5zm2.4 41c-1.3 0-2.4 1.1-2.4 2.4 0 1.3 1.1 2.4 2.4 2.4 1.3 0 2.4-1.1 2.4-2.4 0-1.3-1.1-2.4-2.4-2.4zm-11.9-2.1h23.8V26.9H24.4v35.3zm76.2-11.6c-1.1 0-2.1.4-3.1 1.1-.9.8-1.5 1.7-1.8 3-.1.6-.2 1-.2 1.4v3.4c0 1.5.4 2.8 1.4 3.8.9 1 2.1 1.5 3.6 1.5 1.7 0 3.1-.7 4-2 1-1.3 1.4-3.1 1.4-5.3 0-2-.4-3.7-1.3-5-1-1.2-2.4-1.9-4-1.9zm83.3-.3c-1.8 0-3.2.8-4.2 2.5-.8 1.4-1.2 3-1.2 5 0 1.9.4 3.5 1.2 4.9 1 1.6 2.4 2.5 4.1 2.5 1.7 0 3.1-.8 4.1-2.5.9-1.4 1.3-3 1.3-4.9 0-1.9-.4-3.5-1.2-4.9-.9-1.8-2.3-2.6-4.1-2.6zm-60.7.3c-1.1 0-2.1.4-3.1 1.1-.9.8-1.5 1.7-1.8 3-.1.6-.2 1-.2 1.4v3.4c0 1.5.5 2.8 1.4 3.8.9 1 2.1 1.5 3.6 1.5 1.7 0 3.1-.7 4-2 1-1.3 1.4-3.1 1.4-5.3 0-2-.5-3.7-1.4-5-.9-1.2-2.3-1.9-3.9-1.9zM76 43.2c-.4 1.2-.8 3-1.4 5.4l-2.4 7.5h7.7l-2.4-7.5c-.3-.8-.8-2.6-1.5-5.4zm142.6 6.9c-1.5 0-2.7.6-3.6 1.9-.8 1-1.2 2.2-1.4 3.6h9.5c0-1.4-.3-2.5-.9-3.5-.8-1.4-2-2-3.6-2zM96.1 29.7c.1-.2.1-.4.1-.6v-1.5c-1.9 0-3.7.4-3.7 2 0 1 .7 1.5 1.5 1.5 1.1 0 1.9-.7 2.1-1.4zM71.2 23c-.3-.9-.5-1.9-.7-2.8-.2.9-.5 1.9-.7 2.8l-1.1 3.6h3.8L71.2 23zm151.6-1.1c3.4 0 4.6 2.8 4.6 5.2 0 .5 0 .9-.1 1.1h-7.1c.1 1.9 1.5 2.8 3.3 2.8 1.2 0 2.1-.2 2.9-.5l.4 1.8c-.9.4-2.2.7-3.7.7-3.4 0-5.5-2.1-5.5-5.4 0-2.9 1.8-5.7 5.2-5.7zm-42.5.3l.1 1.6h.1c.5-.8 1.6-1.8 3.4-1.8 1.8 0 3.8 1.2 3.8 4.6v6.3H185v-6c0-1.5-.6-2.7-2-2.7-1.1 0-1.8.8-2.1 1.6-.1.2-.1.5-.1.9V33h-2.7v-7.5c0-1.2 0-2.3-.1-3.2h2.3zm-28-.3c3.4 0 4.6 2.8 4.6 5.2 0 .5 0 .9-.1 1.1h-7.1c.1 1.9 1.5 2.8 3.3 2.8 1.2 0 2.1-.2 2.9-.5l.4 1.8c-.9.4-2.2.7-3.7.7-3.4 0-5.5-2.1-5.5-5.4 0-2.9 1.8-5.7 5.2-5.7zm-11-4.6h2.7v15.5h-2.7V17.3zm-21.2 6.5c-1 0-2.1.3-2.8.8l-.5-1.7c.8-.5 2.2-.9 3.8-.9 3.4 0 4.4 2.2 4.4 4.5v3.8c0 1 0 1.9.2 2.6h-2.4l-.2-1.2h-.1c-.6.8-1.7 1.4-3.1 1.4-2.1 0-3.3-1.6-3.3-3.2 0-2.7 2.4-4 6.3-4v-.2c-.2-.7-.4-1.9-2.3-1.9zm-15.8-6c.9 0 1.5.6 1.5 1.5 0 .8-.6 1.4-1.5 1.4s-1.5-.7-1.5-1.4c0-.9.6-1.5 1.5-1.5zm1.3 4.4v10.6h-2.7V22.2h2.7zm-36.8-4.1h3.4L77 32.8h-2.9l-1.3-4.2h-4.6l-1.3 4.2h-2.8l4.7-14.7zM51 66.9c0 2.6-2.1 4.7-4.7 4.7H26.2c-2.6 0-4.7-2.1-4.7-4.7V22.1c0-2.6 2.1-4.7 4.7-4.7h20.1c2.6 0 4.7 2.1 4.7 4.7v44.8zM83.3 68l-2.7-8.4h-9.3L68.8 68h-4.7l9.2-28.7H79L88.2 68h-4.9zm1-35.2h-2.6l-3.9-10.6h2.9l1.7 5.4c.3.9.5 1.8.7 2.7h.1c.2-.9.4-1.7.7-2.7l1.7-5.4h2.8l-4.1 10.6zm5.5-2.9c0-2.7 2.4-4 6.3-4v-.2c0-.7-.3-1.9-2.2-1.9-1 0-2.1.3-2.8.8l-.5-1.7c.8-.5 2.2-.9 3.8-.9 3.4 0 4.4 2.2 4.4 4.5v3.8c0 1 0 1.9.2 2.6h-2.4l-.2-1.2h-.1c-.6.8-1.7 1.4-3.1 1.4-2.2 0-3.4-1.6-3.4-3.2zm17.9 35.9c-1.7 1.8-3.8 2.7-6.3 2.7-2.7 0-4.7-1-5.9-2.9v10.9h-4.6V54.1c0-2.2-.1-4.5-.2-6.8h4l.3 3.3h.1c1.5-2.5 3.8-3.7 6.9-3.7 2.4 0 4.4 1 6.1 2.9 1.6 1.9 2.4 4.5 2.4 7.6.1 3.6-.9 6.3-2.8 8.4zm4.8-33h-2.7V17.3h2.7v15.5zm17.8 33c-1.7 1.8-3.8 2.7-6.3 2.7-2.7 0-4.7-1-5.9-2.9v10.9h-4.6V54.1c0-2.2-.1-4.5-.2-6.8h4l.3 3.3h.1c1.5-2.5 3.8-3.7 6.9-3.7 2.4 0 4.5 1 6.1 2.9 1.6 1.9 2.4 4.5 2.4 7.6.1 3.6-.9 6.3-2.8 8.4zm3.1-32.7c-1.4 0-2.6-.5-3.3-1.8l-.1 1.6h-2.3c0-.7.1-1.9.1-3V17.3h2.7v6.3c.7-1 1.8-1.7 3.4-1.7 2.6 0 4.4 2.2 4.4 5.4-.1 3.9-2.5 5.8-4.9 5.8zm23 32.8c-1.9 1.7-4.5 2.5-7.8 2.5-3.1 0-5.5-.6-7.4-1.8l1.1-3.8c2 1.2 4.2 1.8 6.6 1.8 1.7 0 3.1-.4 4-1.2 1-.8 1.4-1.8 1.4-3.1 0-1.1-.4-2.1-1.2-2.9-.8-.8-2.1-1.5-3.9-2.2-5-1.9-7.5-4.6-7.5-8.2 0-2.4.9-4.3 2.6-5.8 1.8-1.5 4.1-2.3 7-2.3 2.6 0 4.8.5 6.5 1.4l-1.2 3.7c-1.6-.9-3.4-1.3-5.5-1.3-1.6 0-2.9.4-3.8 1.2-.8.7-1.1 1.6-1.1 2.6 0 1.1.4 2.1 1.3 2.8.8.7 2.1 1.4 4.1 2.2 2.5 1 4.3 2.2 5.4 3.5 1.2 1.3 1.7 3 1.7 5 .3 2.4-.6 4.4-2.3 5.9zm16.1-15.1h-5v10c0 2.5.9 3.8 2.7 3.8.8 0 1.5-.1 2-.2l.1 3.5c-.9.3-2.1.5-3.6.5-1.8 0-3.2-.5-4.2-1.7-1-1.1-1.5-3-1.5-5.6V50.8h-3v-3.4h3v-3.8l4.5-1.4v5.1h5v3.5zM170 33.1c-3 0-5.3-2.1-5.3-5.5 0-3.5 2.3-5.6 5.5-5.6s5.3 2.2 5.3 5.5c-.1 3.8-2.8 5.6-5.5 5.6zm21.3 32.2c-1.9 2.1-4.4 3.1-7.5 3.1-3 0-5.4-1-7.2-3-1.8-2-2.7-4.6-2.7-7.6 0-3.2.9-5.8 2.8-7.9 1.9-2 4.3-3.1 7.5-3.1 3 0 5.5 1 7.3 3 1.7 1.9 2.6 4.5 2.6 7.6-.1 3.3-1 5.9-2.8 7.9zm4.7-43.1h1.5v-2l2.6-.7v2.7h2.5v2h-2.5v4.7c0 1.3.3 2 1.4 2 .5 0 .7 0 1-.1v2c-.4.2-1.1.3-1.9.3-1 0-1.8-.3-2.3-.9-.6-.6-.8-1.6-.8-3v-5H196v-2zm11.7 29.2c-.4-.1-.9-.1-1.4-.1-1.6 0-2.8.6-3.7 1.8-.8 1.1-1.1 2.4-1.1 4.1V68h-4.6V53.9c0-2.4 0-4.5-.1-6.5h4l.2 4h.1c.5-1.4 1.2-2.5 2.3-3.3 1-.7 2.1-1.1 3.3-1.1.4 0 .8 0 1.1.1v4.3zm.7-25v6.4h-2.7V17.3h2.7v6.3c.3-.5.8-.9 1.3-1.2.5-.3 1.2-.5 1.8-.5 1.8 0 3.7 1.2 3.7 4.6v6.3h-2.7v-6c0-1.5-.6-2.7-2-2.7-1 0-1.8.7-2.1 1.5.1.3 0 .6 0 .8zm18.9 32.4h-13.7c.1 2 .7 3.6 2 4.7 1.2 1 2.6 1.4 4.5 1.4 2 0 3.9-.3 5.5-1l.7 3.2c-1.9.9-4.2 1.3-6.9 1.3-3.2 0-5.7-.9-7.5-2.8-1.8-1.9-2.7-4.4-2.7-7.6 0-3.1.9-5.7 2.5-7.8 1.8-2.2 4.2-3.3 7.2-3.3s5.2 1.1 6.7 3.3c1.2 1.8 1.8 3.9 1.8 6.5 0 .8 0 1.5-.1 2.1zM132.9 24c-1.1 0-2.1.8-2.4 2 0 .2-.1.4-.1.7v1.7c0 .2 0 .4.1.6.3 1.1 1.2 1.9 2.4 1.9 1.7 0 2.7-1.3 2.7-3.5-.1-1.8-1-3.4-2.7-3.4zm19.2-.2c-1.7 0-2.3 1.5-2.5 2.6h4.7c0-1-.4-2.6-2.2-2.6zm18 .1c-1.9 0-2.7 1.9-2.7 3.6 0 2.1 1 3.6 2.6 3.6 1.5 0 2.6-1.5 2.6-3.6 0-1.7-.7-3.6-2.5-3.6zm-51.5 5.7c0 1 .7 1.5 1.5 1.5 1.1 0 1.8-.7 2.1-1.5.1-.2.1-.4.1-.6v-1.5c-1.9.1-3.7.5-3.7 2.1zm104-5.8c-1.7 0-2.3 1.5-2.5 2.6h4.7c.1-1-.4-2.6-2.2-2.6z"/><path class="aast0" d="M237.1 89H11.9C5.4 89 0 83.6 0 77V12C0 5.4 5.4 0 11.9 0H237c6.6 0 11.9 5.4 11.9 12v65c.1 6.6-5.3 12-11.8 12zM11.9 3.1c-4.9 0-8.8 4-8.8 8.9v65c0 4.9 4 8.9 8.8 8.9H237c4.9 0 8.8-4 8.8-8.9V12c0-4.9-4-8.9-8.8-8.9H11.9z"/></svg><svg id="icon-app-store-fr" viewBox="0 0 249 89"><style>.abst0{fill:#58595b}</style><path class="abst0" d="M34 23.2h4.7c.3 0 .6-.3.6-.5 0-.3-.2-.6-.6-.6H34c-.3 0-.6.2-.6.6 0 .2.3.5.6.5zM36.3 64c-1.3 0-2.4 1.1-2.4 2.4 0 1.3 1.1 2.4 2.4 2.4 1.3 0 2.4-1.1 2.4-2.4 0-1.3-1-2.4-2.4-2.4zm-11.9-2.1h23.8V26.8H24.4v35.1zm76.3-11.5c-1.1 0-2.1.4-3.1 1.1-.9.8-1.5 1.7-1.8 3-.1.6-.2 1-.2 1.4v3.4c0 1.5.5 2.8 1.4 3.8.9 1 2.1 1.5 3.6 1.5 1.7 0 3.1-.7 4-2 1-1.3 1.4-3.1 1.4-5.3 0-2-.4-3.7-1.4-4.9-.9-1.3-2.2-2-3.9-2zm83.4-.3c-1.8 0-3.2.8-4.2 2.4-.8 1.3-1.2 3-1.2 4.9 0 1.9.4 3.5 1.2 4.9 1 1.6 2.4 2.4 4.2 2.4 1.7 0 3.1-.8 4.1-2.5.9-1.4 1.3-3 1.3-4.9 0-1.9-.4-3.5-1.2-4.9-1-1.5-2.4-2.3-4.2-2.3zm-60.8.3c-1.1 0-2.1.4-3.1 1.1-.9.8-1.5 1.7-1.8 3-.1.6-.2 1-.2 1.4v3.4c0 1.5.5 2.8 1.4 3.8.9 1 2.1 1.5 3.6 1.5 1.7 0 3.1-.7 4-2 1-1.3 1.4-3.1 1.4-5.3 0-2-.5-3.7-1.4-4.9-.9-1.3-2.2-2-3.9-2zM76.1 43c-.4 1.2-.8 3-1.4 5.4l-2.4 7.5H80l-2.4-7.5c-.3-.8-.8-2.5-1.5-5.4zm142.7 6.9c-1.5 0-2.7.6-3.6 1.9-.8 1-1.2 2.2-1.4 3.5h9.5c0-1.4-.3-2.5-.9-3.5-.7-1.3-1.9-1.9-3.6-1.9zM51.1 66.7c0 2.6-2.1 4.7-4.7 4.7H26.3c-2.6 0-4.7-2.1-4.7-4.7V22c0-2.6 2.1-4.7 4.7-4.7h20.1c2.6 0 4.7 2.1 4.7 4.7v44.7zm32.3 1.1l-2.7-8.4h-9.3l-2.5 8.4h-4.7l9.2-28.5H79l9.2 28.5h-4.8zm24.5-2.3c-1.7 1.8-3.8 2.7-6.3 2.7-2.7 0-4.7-1-5.9-2.9v10.8h-4.6V53.9c0-2.2-.1-4.5-.2-6.8h4l.3 3.3h.1c1.5-2.4 3.8-3.7 7-3.7 2.4 0 4.4 1 6.1 2.9 1.6 1.9 2.4 4.4 2.4 7.6-.1 3.5-1 6.3-2.9 8.3zm22.6 0c-1.7 1.8-3.8 2.7-6.3 2.7-2.7 0-4.7-1-5.9-2.9v10.8h-4.6V53.9c0-2.2-.1-4.5-.2-6.8h4l.3 3.3h.1c1.5-2.4 3.8-3.7 6.9-3.7 2.4 0 4.5 1 6.1 2.9 1.6 1.9 2.4 4.4 2.4 7.6 0 3.5-.9 6.3-2.8 8.3zm26.1.2c-1.9 1.7-4.5 2.5-7.8 2.5-3.1 0-5.5-.6-7.4-1.8l1.1-3.8c2 1.2 4.2 1.8 6.6 1.8 1.7 0 3.1-.4 4-1.2 1-.8 1.4-1.8 1.4-3.1 0-1.1-.4-2.1-1.2-2.9-.8-.8-2.1-1.5-3.9-2.2-5-1.9-7.5-4.6-7.5-8.2 0-2.3.9-4.3 2.6-5.8 1.8-1.5 4.1-2.2 7-2.2 2.6 0 4.8.5 6.5 1.4l-1.2 3.7c-1.6-.9-3.4-1.3-5.5-1.3-1.6 0-2.9.4-3.8 1.2-.8.7-1.1 1.6-1.1 2.6 0 1.1.4 2.1 1.3 2.8.8.7 2.1 1.4 4.1 2.2 2.5 1 4.3 2.1 5.4 3.5 1.2 1.3 1.7 3 1.7 4.9.3 2.4-.6 4.4-2.3 5.9zm16.2-15.1h-5v10c0 2.5.9 3.8 2.7 3.8.8 0 1.5-.1 2-.2l.1 3.5c-.9.3-2.1.5-3.6.5-1.8 0-3.2-.5-4.2-1.7-1-1.1-1.5-2.9-1.5-5.5V50.6h-3v-3.4h3v-3.8l4.5-1.4v5.1h5v3.5zm18.7 14.5c-1.9 2.1-4.4 3.1-7.5 3.1-3 0-5.4-1-7.2-3-1.8-2-2.7-4.5-2.7-7.6 0-3.2.9-5.8 2.8-7.8s4.3-3 7.5-3c3 0 5.5 1 7.3 3 1.7 1.9 2.6 4.5 2.6 7.5-.1 3.2-1 5.8-2.8 7.8zM208 51.2c-.5-.1-.9-.1-1.4-.1-1.6 0-2.8.6-3.7 1.8-.8 1.1-1.1 2.4-1.1 4.1v10.8h-4.6V53.7c0-2.4 0-4.5-.1-6.5h4l.2 3.9h.1c.5-1.4 1.2-2.4 2.3-3.3 1-.7 2.1-1.1 3.3-1.1.4 0 .8 0 1.1.1v4.4zm19.6 7.4h-13.7c.1 2 .7 3.6 2 4.6 1.2 1 2.6 1.4 4.5 1.4 2 0 3.9-.3 5.5-1l.7 3.2c-1.9.9-4.2 1.3-6.9 1.3-3.2 0-5.7-.9-7.5-2.8-1.8-1.9-2.7-4.4-2.7-7.6 0-3.1.9-5.7 2.5-7.8 1.8-2.2 4.2-3.3 7.2-3.3s5.2 1.1 6.7 3.3c1.2 1.8 1.8 3.9 1.8 6.5 0 .9 0 1.6-.1 2.2z"/><path class="abst0" d="M237.4 88.7H12c-6.6 0-12-5.4-12-11.9V12C0 5.4 5.4 0 12 0h225.4c6.6 0 12 5.4 12 12v64.8c-.1 6.5-5.4 11.9-12 11.9zM12 3.1c-4.9 0-8.9 4-8.9 8.9v64.8c0 4.9 4 8.8 8.9 8.8h225.4c4.9 0 8.9-4 8.9-8.8V12c0-4.9-4-8.9-8.9-8.9H12z"/><path class="abst0" d="M75.8 20.8h-3.3v10.1h-1.9V20.8h-3.3v-1.6h8.5v1.6zM84.9 26.3c0 .3 0 .6-.1.8h-5.6c0 .8.3 1.5.8 1.9.5.4 1.1.6 1.8.6.8 0 1.6-.1 2.3-.4l.3 1.3c-.8.3-1.7.5-2.8.5-1.3 0-2.3-.4-3.1-1.2-.7-.8-1.1-1.8-1.1-3.1s.3-2.3 1-3.2c.7-.9 1.7-1.3 2.9-1.3s2.1.4 2.8 1.3c.6.9.8 1.8.8 2.8zm-1.8-.5c0-.6-.1-1-.4-1.4-.3-.5-.8-.8-1.5-.8-.6 0-1.1.3-1.5.8-.3.4-.5.9-.6 1.5l4-.1zm.8-6.8l-2.1 2.5h-1.3L82 19h1.9zM89.5 30.9h-1.9V18.7h1.9v12.2zM99.8 26.3c0 .3 0 .6-.1.8h-5.6c0 .8.3 1.5.8 1.9.5.4 1.1.6 1.8.6.8 0 1.6-.1 2.3-.4l.3 1.3c-.8.3-1.7.5-2.8.5-1.3 0-2.3-.4-3.1-1.2-.7-.8-1.1-1.8-1.1-3.1s.3-2.3 1-3.2c.7-.9 1.7-1.3 2.9-1.3s2.1.4 2.8 1.3c.5.9.8 1.8.8 2.8zm-1.8-.5c0-.6-.1-1-.4-1.4-.3-.5-.8-.8-1.5-.8-.6 0-1.1.3-1.5.8-.3.4-.5.9-.6 1.5l4-.1zm.7-6.8l-2.1 2.5h-1.3l1.5-2.5h1.9zM108.5 22.7l-.4 1.4c-.5-.2-1-.3-1.6-.3-.8 0-1.5.3-1.9.8-.5.5-.7 1.2-.7 2.1 0 .9.3 1.6.8 2.1s1.1.8 1.9.8c.6 0 1.1-.1 1.7-.3l.3 1.4c-.6.3-1.4.4-2.3.4-1.3 0-2.3-.4-3.1-1.2s-1.1-1.8-1.1-3.1.4-2.4 1.2-3.2c.8-.8 1.9-1.3 3.3-1.3.6 0 1.3.2 1.9.4zM118.4 30.9h-1.9v-4.8c0-1.5-.6-2.3-1.7-2.3-.9 0-1.5.4-1.8 1.3-.1.2-.1.4-.1.7v5.1H111V18.7h1.9v5.1c.6-.9 1.4-1.4 2.5-1.4.8 0 1.4.3 1.9.8.6.6 1 1.6 1 2.8l.1 4.9zM127.9 30.9h-1.7l-.1-1h-.1c-.6.8-1.4 1.2-2.5 1.2-.8 0-1.4-.3-1.9-.8-.4-.5-.7-1-.7-1.7 0-1 .4-1.8 1.3-2.4.9-.5 2.1-.8 3.6-.8v-.2c0-1.1-.6-1.7-1.7-1.7-.8 0-1.6.2-2.2.6l-.4-1.2c.8-.5 1.7-.7 2.9-.7 2.2 0 3.3 1.2 3.3 3.5v3.1c.1 1 .2 1.6.2 2.1zM126 28v-1.3c-2.1 0-3.1.5-3.1 1.7 0 .4.1.8.4 1 .2.2.5.3.9.3s.8-.1 1.1-.4c.4-.3.6-.6.6-1 .1 0 .1-.1.1-.3zM135.5 24.2c-.2 0-.4-.1-.6-.1-.7 0-1.2.2-1.5.7-.3.4-.5 1-.5 1.7v4.4H131v-5.8c0-1 0-1.9-.1-2.6h1.6l.1 1.6h.1c.2-.6.5-1 .9-1.3.4-.3.9-.4 1.3-.4h.5v1.8zM145.3 22.5c0 .7-.1 1.5-.1 2.4v4.8c0 1.8-.4 3.1-1.2 3.8-.7.7-1.8 1-3.1 1-1.2 0-2.1-.2-2.8-.7l.4-1.4c.7.4 1.5.6 2.4.6 1.6 0 2.5-.9 2.5-2.7v-.8c-.5.9-1.3 1.3-2.5 1.3-1 0-1.9-.4-2.5-1.2-.7-.8-1-1.8-1-2.9 0-1.3.4-2.4 1.1-3.3.7-.8 1.6-1.2 2.6-1.2 1.1 0 2 .4 2.5 1.3l.1-1.2 1.6.2zm-1.9 4.8v-1.5c0-.6-.2-1-.5-1.5-.4-.4-.8-.6-1.4-.6-.6 0-1.2.3-1.6.8-.4.5-.6 1.2-.6 2.1 0 .8.2 1.5.6 2 .4.5.9.8 1.6.8.4 0 .8-.1 1.1-.4s.6-.6.7-1c0-.1.1-.4.1-.7zM155.5 26.3c0 .3 0 .6-.1.8h-5.6c0 .8.3 1.5.8 1.9.5.4 1.1.6 1.8.6.8 0 1.6-.1 2.3-.4l.3 1.3c-.8.3-1.7.5-2.8.5-1.3 0-2.3-.4-3.1-1.2-.7-.8-1.1-1.8-1.1-3.1s.3-2.3 1-3.2c.7-.9 1.7-1.3 2.9-1.3s2.1.4 2.7 1.3c.6.9.9 1.8.9 2.8zm-1.8-.5c0-.6-.1-1-.4-1.4-.3-.5-.8-.8-1.5-.8-.6 0-1.1.3-1.5.8-.3.4-.5.9-.6 1.5l4-.1zM162.7 24.2c-.2 0-.4-.1-.6-.1-.7 0-1.2.2-1.5.7-.3.4-.5 1-.5 1.7v4.4h-1.9v-5.8c0-1 0-1.9-.1-2.6h1.6l.1 1.6h.1c.2-.6.5-1 .9-1.3.4-.3.9-.4 1.4-.4h.5v1.8zM177.6 30.9h-1.7l-.1-1.4h-.1c-.5 1-1.4 1.5-2.7 1.5-1 0-1.9-.4-2.5-1.2-.7-.8-1-1.8-1-3.1 0-1.4.4-2.5 1.1-3.3.7-.8 1.6-1.2 2.6-1.2 1.1 0 1.9.4 2.4 1.1v-4.8h1.9v10c0 1 0 1.7.1 2.4zm-2-3.5V26c0-.2 0-.4-.1-.6-.1-.4-.3-.8-.7-1.1-.3-.3-.8-.5-1.3-.5-.7 0-1.2.3-1.6.8-.4.6-.6 1.3-.6 2.1s.2 1.5.6 2c.4.6.9.8 1.6.8.6 0 1.1-.2 1.5-.7.5-.3.6-.8.6-1.4zM187.1 30.9h-1.7l-.1-1h-.1c-.6.8-1.4 1.2-2.5 1.2-.8 0-1.4-.3-1.9-.8-.4-.5-.7-1-.7-1.7 0-1 .4-1.8 1.3-2.4.9-.5 2.1-.8 3.6-.8v-.2c0-1.1-.6-1.7-1.7-1.7-.8 0-1.6.2-2.2.6l-.4-1.2c.8-.5 1.7-.7 2.9-.7 2.2 0 3.3 1.2 3.3 3.5v3.1c.1 1 .1 1.6.2 2.1zm-1.9-2.9v-1.3c-2.1 0-3.1.5-3.1 1.7 0 .4.1.8.4 1 .2.2.5.3.9.3s.8-.1 1.1-.4c.3-.3.6-.6.6-1 .1 0 .1-.1.1-.3zM197.6 30.9h-1.9v-4.8c0-1.5-.6-2.2-1.7-2.2-.6 0-1 .2-1.4.6-.3.4-.5.9-.5 1.4v5h-1.9v-6c0-.7 0-1.5-.1-2.4h1.6l.1 1.3h.1c.2-.4.5-.7 1-1 .5-.3 1.1-.5 1.7-.5.8 0 1.4.3 2 .8.6.6 1 1.6 1 2.8v5zM206 28.5c0 .8-.3 1.4-.9 1.9-.6.5-1.4.7-2.4.7s-1.8-.2-2.4-.6l.4-1.4c.6.4 1.3.6 2.1.6 1 0 1.4-.4 1.4-1.1 0-.3-.1-.6-.3-.8-.2-.2-.6-.4-1.1-.6-1.5-.6-2.2-1.4-2.2-2.4 0-.7.3-1.3.8-1.8.6-.5 1.3-.7 2.2-.7.8 0 1.5.2 2.1.5l-.4 1.3c-.5-.3-1.1-.5-1.7-.5-.4 0-.7.1-.9.3-.2.2-.3.4-.3.7 0 .3.1.5.3.7.2.2.6.4 1.1.6 1.5.6 2.2 1.5 2.2 2.6z"/></svg><svg id="icon-back-top" viewBox="0 0 49.9 49.9"><style>.acst0{fill:#231f20}</style><path class="acst0" d="M33.3 29.6c-.4 0-.8-.1-1.1-.4L25 21.9l-7.2 7.2c-.6.6-1.5.6-2.1 0s-.6-1.5 0-2.1l8.3-8.3c.6-.6 1.5-.6 2.1 0l8.3 8.3c.6.6.6 1.5 0 2.1-.4.4-.7.5-1.1.5z"/><path class="acst0" d="M25 49.9c-13.8 0-25-11.2-25-25S11.2 0 25 0s25 11.2 25 25-11.3 24.9-25 24.9zm0-46.1C13.3 3.8 3.8 13.3 3.8 25S13.3 46.2 25 46.2 46.2 36.7 46.2 25 36.7 3.8 25 3.8z"/></svg><svg id="icon-bullet-1" viewBox="0 0 63 87"><style>.adst0{fill:#5b6f80}</style><path class="adst0" d="M47 87H32.6c-.6 0-1-.5-1-1V19.9L17.4 33.1c-.2.2-.5.3-.8.3-.3 0-.5-.1-.7-.4L7.6 23c-.2-.2-.3-.5-.2-.7 0-.3.2-.5.4-.7L33.3.2c.2-.1.4-.2.6-.2h13c.6 0 1 .5 1 1v85c.1.5-.4 1-.9 1zm-13.3-2H46V2H34.3L9.8 22.5l7 8.4 15.1-14c.3-.3.7-.3 1.1-.2.4.2.6.5.6.9V85z"/><path class="adst0" d="M41.1 87H26.8c-.6 0-1-.5-1-1V23.8c0-.6.5-1 1-1s1 .5 1 1V85h13.3c.6 0 1 .5 1 1s-.4 1-1 1zM8.4 23.4c-.3 0-.6-.1-.8-.4l-2.3-2.9c-.4-.4-.3-1.1.1-1.4L27.5.2c.1-.1.4-.2.6-.2h13c.6 0 1 .5 1 1s-.5 1-1 1H28.5l-21 17.6 1.7 2.1c.4.4.3 1.1-.1 1.4-.3.2-.5.3-.7.3z"/></svg><svg id="icon-bullet-2" viewBox="0 0 63 87"><style>.aest0{fill:#5b6f80}</style><g id="aeXMLID_1_"><path class="aest0" d="M62 87H6.7c-.5 0-1-.4-1-1V71c0-.3.1-.5.3-.7l32.1-31.4c.9-.9 1.9-1.9 2.9-3s1.9-2.1 2.6-3.2c.8-1.1 1.4-2.3 1.9-3.5.5-1.2.7-2.4.7-3.7 0-1.6-.3-3-.9-4.2-.5-1.2-1.3-2.3-2.3-3.1-1-.8-2.1-1.5-3.5-2-1.7-.6-3.6-.8-5.3-.7-2.7.2-5.1 1.1-6.9 2.8-2.1 1.9-3.3 4.4-3.8 7.7-.1.5-.5.9-1.1.9L7.8 25.6c-.5 0-.9-.5-.9-1v-.2c.3-3.9 1.3-7.5 2.8-10.5 1.6-3 3.6-5.6 6.1-7.7 2.5-2 5.4-3.6 8.7-4.7 2.8-.9 5.8-1.4 9-1.6h1.7c3.8 0 7.4.5 10.7 1.5 3.3 1 6.3 2.5 8.8 4.5 2.5 2 4.5 4.6 6 7.7 1.5 3.1 2.2 6.8 2.2 10.9 0 5.4-1.2 10.2-3.7 14.2-2.4 3.9-5.6 7.6-9.3 11.1L26.3 72.2H62c.5 0 1 .4 1 1V86c0 .6-.4 1-1 1zM7.7 85H61V74.2H23.7c-.4 0-.8-.3-.9-.6-.1-.4-.1-.8.2-1.1l25.5-24c3.7-3.4 6.7-7 9-10.7 2.3-3.6 3.4-8 3.4-13.1 0-3.8-.7-7.2-2-10.1-1.3-2.8-3.2-5.2-5.4-7-2.3-1.8-5-3.2-8.1-4.2C42.3 2.5 38.9 2 35.3 2h-1.6c-3 .1-5.9.6-8.5 1.5-3 1-5.8 2.4-8.1 4.3s-4.2 4.3-5.6 7.1c-1.3 2.6-2.2 5.5-2.5 8.8l12.8 1c.6-3.3 2-5.9 4.3-7.9 2.2-2 4.9-3.1 8.1-3.3h1.2c1.7 0 3.4.3 4.9.8 1.6.6 3 1.4 4.1 2.4 1.2 1 2.1 2.3 2.9 3.7.7 1.5 1.1 3.2 1.1 5.1 0 1.5-.3 3-.9 4.5-.6 1.4-1.3 2.7-2.1 3.9-.8 1.2-1.8 2.4-2.8 3.5-1 1.1-2 2.1-2.9 3l-32 31V85z"/><path class="aest0" d="M8 25.6h-.2l-5.7-.5c-.5 0-1-.5-.9-1.1.3-3.7 1.2-6.8 2.9-10.1 1.6-3.1 3.6-5.6 6.2-7.7 2.5-2 5.4-3.6 8.7-4.7C22.4.5 30.2 0 33.7 0c.5 0 1 .4 1 1s-.4 1-1 1c-3.9 0-11.2.5-14.2 1.5-3.1 1-5.8 2.4-8.1 4.3s-4.2 4.3-5.6 7.1c-1.4 2.8-2.2 5.3-2.5 8.3l4.8.4c.5 0 1 .5.9 1.1 0 .5-.4.9-1 .9zM6.7 87H1c-.5 0-1-.4-1-1V71c0-.3.1-.5.3-.7l32.1-31.4c.9-.9 1.9-1.9 2.9-3s1.9-2.1 2.6-3.2c.8-1.1 1.4-2.3 1.9-3.5.5-1.2.7-2.4.7-3.7 0-1.6-.3-2.9-.9-4.2-1.1-2.3-3.6-5.7-5.6-5.7-.5 0-1-.4-1-1s.4-1 1-1c3.8 0 6.8 5.7 7.4 6.8.7 1.5 1.1 3.2 1.1 5.1 0 1.6-.3 3.1-.9 4.5-.6 1.4-1.3 2.7-2.1 3.9-.8 1.2-1.8 2.3-2.8 3.5-1 1.1-2 2.1-2.9 3L2 71.4V85h4.7c.5 0 1 .4 1 1s-.5 1-1 1z"/></g></svg><svg id="icon-bullet-3" viewBox="0 0 63 87"><style>.afst0{fill:#5b6f80}</style><path class="afst0" d="M33.9 87c-3.5 0-6.9-.4-10-1.1-3.1-.8-6-1.9-8.6-3.5-2.6-1.6-4.8-3.7-6.7-6.2-1.9-2.5-3.3-5.6-4.3-9.1-.1-.3 0-.5.1-.8.1-.2.4-.4.6-.5l15-3.9c.3-.1.5 0 .8.1.2.1.4.4.5.6.8 3.2 2.2 5.7 4.3 7.4 2 1.7 4.8 2.6 8.3 2.6 1.7 0 3.4-.3 5-.9 1.6-.6 3-1.4 4.1-2.4 1.2-1 2.1-2.3 2.8-3.7.7-1.5 1-3.1 1-4.9 0-2.4-.5-4.4-1.5-5.9s-2.4-2.7-4-3.5c-1.7-.8-3.6-1.4-5.6-1.7-2.1-.3-4.2-.5-6.3-.5H26c-.6 0-1-.4-1-1V35.5c0-.5.4-1 1-1h3.6c2 0 4-.1 5.8-.3 1.8-.2 3.4-.7 4.8-1.4s2.5-1.7 3.3-3c.8-1.3 1.3-3.1 1.3-5.4 0-2.9-1-5.2-3-7.1-2-1.8-4.6-2.8-7.9-2.8-2.6 0-4.9.7-7 2.2-2.1 1.5-3.6 3.6-4.5 6.2-.2.5-.7.8-1.2.6l-14.9-4c-.3-.1-.5-.2-.6-.5-.1-.2-.2-.5-.1-.8 1-3.1 2.4-5.9 4.2-8.2 1.8-2.3 3.9-4.3 6.4-5.8 2.4-1.5 5.1-2.6 8-3.3 3-.5 6-.9 9.1-.9 3.7 0 7.2.5 10.5 1.4 3.3 1 6.3 2.4 8.8 4.3 2.5 1.9 4.6 4.3 6.1 7.2 1.5 2.9 2.3 6.3 2.3 10 0 4.6-1.3 8.8-3.9 12.4-2 2.8-4.7 4.8-7.9 6.2 4 1.2 7.2 3.3 9.5 6.4 2.9 3.9 4.3 8.5 4.3 13.8 0 4.1-.8 7.7-2.4 10.9-1.6 3.1-3.8 5.8-6.4 7.9-2.7 2.1-5.8 3.7-9.3 4.8-3.5 1.2-7.2 1.7-11 1.7zM6.6 67.4c.9 2.9 2.1 5.4 3.7 7.5 1.7 2.3 3.8 4.3 6.1 5.7 2.4 1.5 5 2.6 8 3.3 2.9.7 6.1 1.1 9.5 1.1 3.6 0 7-.5 10.3-1.5 3.3-1 6.2-2.5 8.7-4.5 2.5-1.9 4.4-4.4 5.9-7.3 1.5-2.9 2.2-6.2 2.2-10 0-4.9-1.3-9.1-3.9-12.7-2.6-3.5-6.4-5.6-11.4-6.3-.5-.1-.9-.5-.9-1v-.2c0-.5.3-.9.8-1 4.2-1 7.5-3.2 9.9-6.4 2.4-3.3 3.6-7 3.6-11.2 0-3.5-.7-6.5-2.1-9.1-1.4-2.6-3.2-4.8-5.5-6.5-2.3-1.7-5.1-3.1-8.1-4C40.2 2.4 36.8 2 33.3 2c-3 0-5.8.3-8.6 1-2.7.7-5.2 1.7-7.5 3.1-2.2 1.4-4.2 3.1-5.8 5.3C10 13.2 8.8 15.5 8 18l13 3.5c1.1-2.6 2.7-4.8 4.9-6.3 2.4-1.7 5.1-2.6 8.2-2.6 3.8 0 6.9 1.1 9.3 3.3 2.4 2.2 3.6 5.1 3.6 8.5 0 2.7-.5 4.8-1.6 6.5-1 1.6-2.4 2.9-4.1 3.7-1.6.8-3.5 1.4-5.5 1.6-1.9.2-4 .4-6.1.4h-2.6V47h2.4c2.2 0 4.4.2 6.6.5 2.3.3 4.4 1 6.2 1.9 1.9 1 3.5 2.4 4.7 4.2 1.2 1.8 1.9 4.2 1.9 7 0 2.1-.4 4-1.2 5.7-.8 1.7-1.9 3.2-3.3 4.4-1.4 1.2-3 2.1-4.8 2.8-1.8.7-3.7 1-5.7 1-4 0-7.2-1-9.6-3-2.1-1.8-3.7-4.3-4.6-7.4L6.6 67.4z"/><path class="afst0" d="M23.1 85.7h-.2c-.2 0-.4-.1-.7-.2-4.4-1-17.9-3.9-22.1-17.4-.1-.3 0-.5.1-.8.1-.2.4-.4.6-.5l4.7-1.2c.5-.1 1.1.2 1.2.7.1.5-.2 1.1-.7 1.2l-3.6.9c4.2 11.5 16.3 14.2 20.3 15.1.3.1.6.1.8.2.5.1.9.7.7 1.2-.2.5-.6.8-1.1.8zm5.4-12.5h-1c-.6 0-1-.5-.9-1.1 0-.5.5-1 1.1-.9.1 0 6.4.4 10.4-3.1 2.1-1.9 3.1-4.7 3.1-8.2 0-2.4-.5-4.4-1.5-5.9s-2.4-2.7-4-3.5c-1.2-.6-2.3-.7-3.8-.9-.5-.1-1-.1-1.6-.2-2.1-.3-4.3-.4-6.3-.4h-3.4c-.6 0-1-.4-1-1V35.4c0-.5.4-1 1-1h3.6c2 0 4-.1 5.8-.3 1.8-.2 3.4-.7 4.8-1.4 1.1-.5 4.3-2.2 4.3-9.1 0-4.9-3.8-9-6.3-9.1-.6 0-1-.5-1-1s.5-1 1-1c3.6.1 8.2 5.3 8.2 11 0 5.4-1.8 9-5.4 10.8-1.6.8-3.5 1.4-5.5 1.6-1.9.2-4 .4-6.1.4h-2.6V47H24c2.2 0 4.4.2 6.6.5.5.1 1 .1 1.5.2 1.5.2 3 .3 4.5 1.1 1.9 1 3.5 2.4 4.7 4.2 1.2 1.8 1.9 4.2 1.9 7 0 4.1-1.3 7.3-3.8 9.6-3.7 3.2-8.8 3.6-10.9 3.6zM16.2 22.1h-.3L1.7 18.3c-.3-.1-.5-.2-.6-.5-.1-.2-.2-.5-.1-.7C2.3 13.1 8.2 0 32.8 0c.6 0 1 .4 1 1s-.4 1-1 1C11.4 2 5 12.2 3.3 16.7l13.2 3.4c.5.1.9.7.7 1.2-.2.5-.6.8-1 .8z"/></svg><svg id="icon-bullet-4" viewBox="0 0 69 87"><style>.agst0{fill:#FFF}</style><path class="agst0" d="M56 87H42c-.5 0-1-.5-1-1V69.7H6.7c-.5 0-1-.5-1-1V54.4c0-.2.1-.4.2-.6L39.2.5c.2-.3.5-.5.8-.5h16c.5 0 1 .5 1 1v53.7h11c.5 0 1 .5 1 1v13c0 .6-.4 1-1 1H57V86c0 .5-.5 1-1 1zm-13.1-2h12V68.7c0-.6.4-1 1-1H67V56.8H56c-.5 0-1-.5-1-1V2H40.6L7.7 54.7v13h34.2c.5 0 1 .5 1 1V85zm-1-28.2H21c-.4 0-.7-.2-.9-.5-.2-.3-.2-.7 0-1L40.8 21c.2-.3.5-.5.8-.5h.2c.5 0 1 .5 1 1v34.3c.1.5-.3 1-.9 1zm-19.1-2.1H41V24.6L22.8 54.7z"/><path class="agst0" d="M50.2 87h-14c-.5 0-1-.5-1-1V69.7H1c-.5 0-1-.5-1-1V54.4c0-.2.1-.4.2-.6L33.5.5c.2-.3.5-.5.8-.5h15.9c.5 0 1 .5 1 1s-.4 1-1 1H34.9L2 54.7v13h34.2c.5 0 1 .5 1 1V85h13c.5 0 1 .5 1 1s-.4 1-1 1zm-14-30.2H21.3c-.5 0-1-.5-1-1 0-.6.4-1 1-1h13.9V30.9c0-.6.4-1 1-1s1 .5 1 1v24.9c0 .5-.4 1-1 1z"/></svg><svg viewBox="0 0 8 14" id="icon-caret-down"><path d="M8 5.5q0 .203-.148.352l-3.5 3.5Q4.204 9.5 4 9.5t-.352-.148l-3.5-3.5Q0 5.704 0 5.5t.148-.352T.5 5h7q.203 0 .352.148T8 5.5z"/></svg><svg viewBox="0 0 5 14" id="icon-caret-left"><path d="M5 3.5v7q0 .203-.148.352T4.5 11t-.352-.148l-3.5-3.5Q.5 7.204.5 7t.148-.352l3.5-3.5Q4.296 3 4.5 3t.352.148T5 3.5z"/></svg><svg viewBox="0 0 5 14" id="icon-caret-right"><path d="M4.5 7q0 .203-.148.352l-3.5 3.5Q.704 11 .5 11t-.352-.148T0 10.5v-7q0-.203.148-.352T.5 3t.352.148l3.5 3.5Q4.5 6.796 4.5 7z"/></svg><svg viewBox="0 0 8 14" id="icon-caret-up"><path d="M8 9.5q0 .203-.148.352T7.5 10h-7q-.203 0-.352-.148T0 9.5t.148-.352l3.5-3.5Q3.796 5.5 4 5.5t.352.148l3.5 3.5Q8 9.296 8 9.5z"/></svg><svg id="icon-chevron-right" viewBox="0 0 10.3 18.6"><style>.alst0{fill:#231f20}</style><path class="alst0" d="M1 18.6c-.3 0-.5-.1-.7-.3-.4-.4-.4-1 0-1.4l7.6-7.6L.3 1.7C-.1 1.3-.1.7.3.3s1-.4 1.4 0L10 8.6c.4.4.4 1 0 1.4l-8.3 8.3c-.2.2-.4.3-.7.3z"/></svg><svg viewBox="0 0 20 20" id="icon-chevron-thin-left"><path d="M13.89 17.418c.27.272.27.71 0 .98s-.7.27-.968 0l-7.83-7.91a.697.697 0 0 1 0-.978l7.83-7.908c.268-.27.7-.27.97 0s.267.71 0 .98L6.75 10l7.14 7.418z"/></svg><svg viewBox="0 0 20 20" id="icon-chevron-thin-right"><path d="M13.25 10L6.11 2.58a.697.697 0 0 1 0-.98.68.68 0 0 1 .968 0l7.83 7.91c.268.27.268.708 0 .978l-7.83 7.908c-.268.27-.7.27-.97 0s-.267-.707 0-.98L13.25 10z"/></svg><svg viewBox="0 0 14.4 17.5" id="icon-dogstudio"><path d="M11.3 5.7c-.2-.3-.5-.6-.9-.9.1-.4.1-.8.1-1.3 0-.6-.1-1.2-.2-1.8l-.2-.6-.3.6S9.5 2.3 9 3c0-.1.1-.2.1-.2l.3-.7-.6.3C6.9 3.6 5.4 5.7 5.1 6.1l-.6.9c-.4.6-.8 1.2-1.5 1.8-.5.4-1 .7-1.2.8l-.3.3.4.1s.8.3 1.8.3c.4 0 .9 0 1.3-.1 0 1.4.2 2.9.5 3.9v.1h.1c.1 0 .1 0 .1-.2 0-.1.1-.2.1-.3C7 10.5 9.3 9 11.1 8.4l.3-.1c.8-.3 1.4-.3 1.4-.3h.1l-.1-.1c0-.1-.7-.9-1.5-2.2zM3.5 8.9c.6-.6 1-1.2 1.4-1.7.2-.2.6-.8.6-.8.1-.2.3-.4.4-.5-.2.4-.4 1-.6 1.6-.1.7-.2 1.4-.2 2.2-.3 0-.6.1-.9.1-.1-.1-.1-.3-.2-.4-.1-.2-.3-.3-.5-.5zm4.7-5.1c-.2.2-.5.4-.8.6-.2.1-.4.1-.5.2.5-.6 1-1 1.5-1.4 0 .2-.1.4-.2.6zM6.9 7.2c.3 0 .5.1.8.3.2.1.4.3.5.5-.7.7-1.4 1.1-1.5 1.1-.3.2-.8.3-1.2.5 0-.6.1-1.1.2-1.6.3-.1.8-.4 1.2-.8zm-1.1.3v-.2h.4c-.1 0-.3.1-.4.2zm.7-.7h-.4c0-.1.1-.2.1-.2.5-.4 1.6-.7 2.7-.4.7.2 1.6.6 2.1 1.8-.6.2-1.2.5-1.7.8-.3-.7-.8-1.3-1.4-1.7-.5-.3-1-.3-1.4-.3zm.4 2.7c.1-.1.9-.5 1.6-1.2.1.2.2.5.3.8-1.4.9-2.4 2.2-3.1 3.7-.1-.9-.2-1.8-.2-2.8.5-.1 1-.3 1.4-.5zm-.4-3.6c.2-.4.5-.7.9-.9.4-.2.8-.3 1.2-.3 1 0 1.9.6 2.3 1.2.5.7.9 1.3 1.2 1.7-.3.1-.5.1-.8.2-.6-1.3-1.7-1.8-2.4-2.1-.3-.1-.7-.1-1-.1-.6 0-1.1.1-1.4.3zM10 4.6c-.5-.2-.9-.3-1.4-.3h-.4c.9-.7 1.4-1.4 1.8-1.9.1.4.1.8.1 1.1 0 .4-.1.7-.1 1.1zM3.7 9.8c-.5 0-.9-.1-1.2-.1.2-.1.4-.3.6-.5.2.1.4.3.5.4.1.1.1.2.1.2z"/><path d="M0 0v12l7.2 5.4 7.2-5.4V0H0zm7.2 16.8L.5 11.7V.4h13.4v11.3l-6.7 5.1z"/></svg><svg viewBox="0 0 42 77" id="icon-facebook"><defs><path id="apa" d="M0 .1h42V77H0z"/></defs><clipPath id="apb"><use xlink:href="#apa" overflow="visible"/></clipPath><path clip-path="url(#apb)" d="M40 0H30C18.8 0 11.6 7.4 11.6 18.9v8.7h-10c-.9 0-1.6.7-1.6 1.6v12.6c0 .9.7 1.6 1.6 1.6h10v31.9c0 .9.7 1.6 1.6 1.6h13.1c.9 0 1.6-.7 1.6-1.6V43.4h11.7c.9 0 1.6-.7 1.6-1.6V29.2c0-.4-.2-.8-.5-1.1-.3-.3-.7-.5-1.1-.5H27.8v-7.4c0-3.6.8-5.4 5.5-5.4H40c.9 0 1.6-.7 1.6-1.6V1.6C41.6.7 40.9 0 40 0zm0 0"/></svg><svg viewBox="0 0 249 89" id="icon-google-play-en"><path class="aqst0" d="M237.1 89H11.9C5.4 89 0 83.6 0 77V12C0 5.4 5.4 0 11.9 0H237c6.6 0 11.9 5.4 11.9 12v65c.1 6.6-5.3 12-11.8 12zM11.9 3.1c-4.9 0-8.8 4-8.8 8.9v65c0 4.9 4 8.9 8.8 8.9H237c4.9 0 8.8-4 8.8-8.9V12c0-4.9-4-8.9-8.8-8.9H11.9z"/><path class="aqst0" d="M15.3 30.2V71c0 .5.2.8.5.9l21.5-20.6-22-21.1zm.8-.9c.3-.1.8 0 1.2.2 1 .6 17.9 10 17.9 10l9.2 5.1-6.2 5.9-22.1-21.2zm27.2 27.8l-4.6 2.5-3.6 2S23 68.4 18.4 70.9l19.7-18.7 5.2 4.9zm1-.6c.1 0 7.9-4.4 9-5 1-.6.9-1.4.1-1.8-.7-.4-5.8-3.2-8-4.4l-6.4 6 5.3 5.2zM105.8 44.5c-5.3 0-9.1 4-9.1 8.7 0 4 3 8.4 8.6 8.4 5.7 0 8.9-4.5 8.9-8.7 0-4.3-3.3-8.4-8.4-8.4zm3.8 14.2c-.8 1.1-2.2 1.8-3.6 1.8-4.3 0-6-5.8-6-9.4 0-1.5.2-3.1 1.6-4.4.8-.8 2-1.2 3.2-1.2 4.4 0 5.8 6 5.8 9.2.1 1.4-.1 2.9-1 4zM216.5 58.2V50c0-1.8-.6-3.1-1.8-4-1.2-.9-2.8-1.4-4.7-1.4-2 0-3.5.5-4.8 1.4-1.2 1-1.8 2.1-1.7 3.3v.1h1.8c0-.9.4-1.7 1.2-2.3.8-.6 1.9-.9 3.3-.9 1.5 0 2.6.3 3.4 1 .8.7 1.2 1.6 1.2 2.8v2h-4.2c-2.2 0-4 .5-5.4 1.4-1.4.9-2.1 2.1-2.1 3.6s.5 2.7 1.4 3.6c1 .9 2.3 1.3 4.1 1.3 1.4 0 2.5-.3 3.6-.9 1.1-.6 2-1.3 2.6-2.3 0 .4 0 .9.1 1.3s.2.9.3 1.5h2.1c-.2-.5-.3-1.1-.4-1.7.1-.4 0-1 0-1.6zm-1.9-1.5c-.4 1.1-1.1 1.9-2.3 2.6-1.1.7-2.2 1-3.7 1-1.2 0-2.1-.3-2.7-.9-.7-.6-1-1.3-1-2.3 0-1 .5-1.9 1.6-2.6 1-.7 2.4-1.1 4-1.1h4.2v3.3zM198.3 38.5h1.8v23h-1.8zM232.1 44.8l-5.9 14.5-6-14.5h-2l7 16.7-1.3 3c-.7 1.6-1.4 2-2.5 2-.4 0-1.1-.1-1.4-.3l-.3 1.7c.4.1 1.2.2 1.8.2 1.9 0 3.3-1 4.2-3.1l8.5-20.3h-2.1zM188.5 44.5c-2.5 0-4.6 1.3-5.7 3v-2.6H181v22.9h1.8v-9c1.3 1.9 3.4 3.1 5.7 3.1 4.4 0 7.4-3.4 7.4-8.7 0-5.3-3-8.7-7.4-8.7zm-.2 16c-2.3 0-4.5-1.9-5.5-3.5v-7.4c1-1.6 3.2-3.4 5.5-3.4 3.7 0 5.8 3.1 5.8 7.2 0 4-2.1 7.1-5.8 7.1zM86 54.9l5-.3V60c-1 .4-2.1.8-4.2.8-7.2 0-11.7-5.9-11.7-12.2 0-5.8 3.9-9.9 9.1-9.9 3.9 0 5.9 2 7.1 3.1l-.8 1.3 1.2-.3 2.7-2.6c-.7-.5-1.9-1.4-4.4-2.1-1.6-.4-3.3-.7-5.1-.7-8.4 0-13.3 6-13.3 12.5 0 5.3 3.5 12.1 12.6 12.1 1.8 0 3.5-.3 5.4-.6l4.7-1.1v-4.1c0-.3 0-1.3.1-1.6.1-.3.1-.3.3-.5l.9-.8h-7L86 54.9zM172.5 58.6c-1.1.6-2.4 1.1-4 1.1-3.3 0-6.4-2.6-7.2-7.1l2.7-.2 8.3-3.4c-.3-.8-.7-2.3-2.5-3.5-1.1-.7-2.4-1-3.6-1-3.6 0-8.1 2.7-8.1 8.2 0 2.7 1.1 5.7 3.6 7.5 1.8 1.3 3.6 1.4 4.7 1.4s2.2-.1 3.4-.7l1.2-.6 1.5-1.7c.2-.1 0 0 0 0zm-11.4-8.1c0-3.9 2.6-5 4-5 1.9 0 3.4 1.7 3.4 3.1 0 .5-.3.7-1 1l-6.3 2.8c0-.6-.1-1.3-.1-1.9zM124.5 44.5c-5.3 0-9.1 4-9.1 8.7 0 4 3 8.4 8.6 8.4 5.7 0 8.9-4.5 8.9-8.7 0-4.3-3.3-8.4-8.4-8.4zm3.8 14.2c-.8 1.1-2.2 1.8-3.6 1.8-4.3 0-6-5.8-6-9.4 0-1.5.2-3.1 1.6-4.4.8-.8 2-1.2 3.2-1.2 4.4 0 5.8 6 5.8 9.2.1 1.4-.1 2.9-1 4zM147.9 46.2l2.2-1.3H143c-1.9 0-4.3.3-6.3 2-1.5 1.3-2.2 3.1-2.2 4.8 0 2.8 2.1 5.6 5.8 5.6.4 0 .7 0 1.1-.1-.2.4-.4.8-.4 1.4 0 1.1.6 1.8 1.1 2.4-1.6.1-4.5.3-6.7 1.6-2.1 1.2-2.7 3-2.7 4.3 0 2.6 2.5 5.1 7.5 5.1 6 0 9.2-3.4 9.2-6.7 0-2.4-1.4-3.7-2.9-5l-1.3-1c-.4-.3-.9-.7-.9-1.5s.5-1.3 1-1.7c1.5-1.2 2.9-2.4 2.9-5 0-2.7-1.7-4.1-2.5-4.8h2.2zm-.8 20.5c0 2.2-1.8 3.9-5.2 3.9-3.8 0-6.2-1.8-6.2-4.4 0-2.6 2.3-3.4 3-3.7 1.5-.5 3.4-.6 3.7-.6h.8c2.8 2 3.9 3 3.9 4.8zm-2.8-11.6c-.6.6-1.5 1-2.4 1-3 0-4.4-3.9-4.4-6.3 0-.9.2-1.9.8-2.6.6-.7 1.5-1.2 2.4-1.2 2.9 0 4.4 4 4.4 6.5.1.7 0 1.8-.8 2.6z"/><path class="aqst0" d="M155.3 58.5V38.4c.1-1.2.5-1.6 1.6-2.3h-5l-2.6 1.3h2.7V59.3c0 .7-.1.8-.9 1.9h6.2l1.3-.8c-.6-.1-1.2-.1-1.8-.2-1.2-.1-1.5-.3-1.5-1.7zM144.8 20.8l5.9 7.5h1.8V17.8h-1.9v7.3l-5.7-7.3h-2v10.5h1.9zM134.9 28.4c3.4 0 5.8-2.3 5.8-5.4 0-3.1-2.4-5.4-5.8-5.4s-5.8 2.3-5.8 5.4c0 3.2 2.4 5.4 5.8 5.4zm0-9.2c2.3 0 3.7 1.6 3.7 3.7s-1.5 3.7-3.7 3.7c-2.3 0-3.7-1.6-3.7-3.7s1.4-3.7 3.7-3.7zM97.7 28.3h1.9v-8.9h3.4v-1.6h-8.7v1.6h3.4zM77.5 28.4c1.9 0 3.5-.8 4.6-1.9v-3.9h-5.3v1.6h3.3v1.6c-.5.5-1.5.9-2.6.9-2.2 0-3.9-1.6-3.9-3.8 0-2.2 1.6-3.8 3.9-3.8 1.2 0 2.3.6 2.9 1.4l1.6-.9c-.9-1.2-2.3-2.2-4.5-2.2-3.2 0-5.9 2.1-5.9 5.4 0 3.5 2.7 5.6 5.9 5.6zM110 17.8h1.9v10.5H110zM92.4 26.7h-5.8v-3h5.7v-1.6h-5.7v-2.7h5.8v-1.6h-7.8v10.5h7.8zM117.3 28.3h2v-8.9h3.3v-1.6h-8.7v1.6h3.4z"/></svg><svg id="icon-google-play-fr" viewBox="0 0 249 89"><style>.arst0{fill:#58595b}</style><path class="arst0" d="M237.4 88.7H12c-6.6 0-12-5.4-12-11.9V12C0 5.4 5.4 0 12 0h225.4c6.6 0 12 5.4 12 12v64.8c-.1 6.5-5.4 11.9-12 11.9zM12 3.1c-4.9 0-8.9 4-8.9 8.9v64.8c0 4.9 4 8.8 8.9 8.8h225.4c4.9 0 8.9-4 8.9-8.8V12c0-4.9-4-8.9-8.9-8.9H12z"/><path class="arst0" d="M15.3 30V70.7c0 .5.2.8.5.9l21.5-20.5-22-21.1zm.8-.8c.3-.1.8 0 1.2.2 1 .6 17.9 9.9 17.9 9.9l9.2 5.1-6.2 5.9-22.1-21.1zm27.2 27.7l-4.6 2.5-3.6 2S23 68.1 18.4 70.6L38.2 52l5.1 4.9zm1.1-.6c.1 0 8-4.4 9-5 1-.6.9-1.4.1-1.8-.7-.4-5.8-3.2-8-4.4l-6.4 6.1 5.3 5.1zM105.9 44.3c-5.3 0-9.1 4-9.1 8.6 0 4 3 8.4 8.6 8.4 5.7 0 8.9-4.4 8.9-8.6 0-4.3-3.2-8.4-8.4-8.4zm3.9 14.2c-.8 1.1-2.2 1.8-3.6 1.8-4.3 0-6-5.8-6-9.3 0-1.5.2-3.1 1.6-4.4.8-.8 2-1.2 3.2-1.2 4.4 0 5.8 6 5.8 9.1 0 1.4-.2 2.8-1 4zM216.8 58v-8.2c0-1.8-.6-3.1-1.8-4-1.2-.9-2.8-1.4-4.7-1.4-2 0-3.5.5-4.8 1.4-1.2 1-1.8 2.1-1.7 3.3v.1h1.8c0-.9.4-1.7 1.2-2.3.8-.6 1.9-.9 3.3-.9 1.5 0 2.6.3 3.4 1 .8.7 1.2 1.6 1.2 2.8v2.1h-4.2c-2.2 0-4 .5-5.4 1.4-1.4.9-2.1 2.1-2.1 3.6s.5 2.7 1.4 3.5c1 .9 2.3 1.3 4.1 1.3 1.4 0 2.5-.3 3.6-.9 1.1-.6 2-1.3 2.6-2.2 0 .4 0 .9.1 1.3s.2.9.3 1.5h2.1c-.2-.5-.3-1.1-.4-1.6V58zm-2-1.5c-.4 1.1-1.1 1.9-2.3 2.6-1.1.7-2.2 1-3.7 1-1.2 0-2.1-.3-2.7-.9-.7-.6-1-1.3-1-2.3 0-1 .5-1.9 1.6-2.6 1-.7 2.4-1.1 4-1.1h4.2v3.3zM198.6 38.4h1.8v23h-1.8zM232.4 44.6l-6 14.5-6-14.5h-2l7 16.7-1.3 2.9c-.7 1.6-1.4 2-2.5 2-.4 0-1.1-.1-1.4-.3l-.3 1.6c.4.1 1.2.2 1.8.2 1.9 0 3.3-1 4.2-3.1l8.5-20.2h-2zM188.7 44.3c-2.5 0-4.6 1.3-5.7 3v-2.6h-1.8v22.9h1.8v-9c1.3 1.9 3.4 3.1 5.7 3.1 4.4 0 7.4-3.4 7.4-8.7 0-5.3-3-8.7-7.4-8.7zm-.2 16c-2.3 0-4.5-1.9-5.5-3.5v-7.4c1-1.6 3.2-3.4 5.5-3.4 3.7 0 5.8 3.1 5.8 7.1 0 4.1-2.1 7.2-5.8 7.2zM86.1 54.7l5-.3v5.4c-1 .4-2.1.8-4.2.8-7.2 0-11.7-5.9-11.7-12.1 0-5.8 3.9-9.8 9.1-9.8 3.9 0 6 2 7.1 3.1l-.8 1.3 1.2-.3 2.7-2.6c-.7-.5-1.9-1.4-4.4-2.1-1.6-.4-3.3-.7-5.1-.7-8.4 0-13.4 6-13.4 12.4 0 5.3 3.5 12 12.6 12 1.8 0 3.5-.3 5.5-.6l4.7-1.1V56c0-.3 0-1.3.1-1.6.1-.3.1-.3.3-.5l.9-.8h-7l-2.6 1.6zM172.7 58.4c-1.1.6-2.4 1.1-4 1.1-3.3 0-6.4-2.6-7.3-7.1l2.7-.2 8.3-3.4c-.3-.8-.7-2.3-2.5-3.5-1.1-.7-2.4-1-3.6-1-3.6 0-8.1 2.7-8.1 8.2 0 2.7 1.1 5.7 3.6 7.5 1.8 1.3 3.6 1.4 4.7 1.4s2.2-.1 3.4-.7l1.2-.6 1.6-1.7c.3-.1 0 0 0 0zm-11.4-8c0-3.9 2.6-5 4-5 1.9 0 3.5 1.6 3.5 3.1 0 .5-.3.7-1 1l-6.3 2.8c-.1-.7-.2-1.3-.2-1.9zM124.6 44.3c-5.3 0-9.1 4-9.1 8.6 0 4 3 8.4 8.6 8.4 5.7 0 8.9-4.4 8.9-8.6 0-4.3-3.2-8.4-8.4-8.4zm3.9 14.2c-.8 1.1-2.2 1.8-3.6 1.8-4.3 0-6-5.8-6-9.3 0-1.5.2-3.1 1.6-4.4.8-.8 2-1.2 3.2-1.2 4.4 0 5.8 6 5.8 9.1 0 1.4-.2 2.8-1 4zM148.1 46.1l2.2-1.3h-7.2c-1.9 0-4.3.3-6.3 1.9-1.5 1.3-2.2 3.1-2.2 4.7 0 2.8 2.1 5.5 5.8 5.5.4 0 .7 0 1.1-.1-.2.4-.4.8-.4 1.4 0 1.1.6 1.8 1.1 2.4-1.6.1-4.5.3-6.7 1.6-2.1 1.2-2.7 3-2.7 4.3 0 2.6 2.5 5.1 7.5 5.1 6 0 9.2-3.4 9.2-6.7 0-2.4-1.4-3.6-2.9-4.9l-1.3-1c-.4-.3-.9-.7-.9-1.5s.5-1.3 1-1.7c1.5-1.2 2.9-2.4 2.9-5 0-2.7-1.7-4.1-2.5-4.8h2.3zm-.8 20.4c0 2.2-1.8 3.9-5.2 3.9-3.8 0-6.2-1.8-6.2-4.4 0-2.6 2.3-3.4 3-3.7 1.5-.5 3.4-.6 3.7-.6h.8c2.7 1.9 3.9 2.9 3.9 4.8zm-2.8-11.6c-.6.6-1.5 1-2.4 1-3 0-4.4-3.9-4.4-6.3 0-.9.2-1.9.8-2.6.6-.7 1.5-1.2 2.4-1.2 2.9 0 4.4 3.9 4.4 6.5 0 .7 0 1.8-.8 2.6z"/><path class="arst0" d="M155.5 58.3v-20c.1-1.2.5-1.6 1.6-2.3h-5l-2.6 1.3h2.7V59c0 .7-.1.8-1 1.9h6.2l1.3-.8c-.6-.1-1.2-.1-1.8-.2-1.1-.1-1.4-.3-1.4-1.6zM71.3 28.2V17.4h4c3.4 0 5.7 2.2 5.7 5.4s-2.3 5.4-5.7 5.4h-4zm7.7-5.4c0-2.1-1.3-3.7-3.7-3.7h-2.1v7.5h2.1c2.4 0 3.7-1.7 3.7-3.8zM83.2 28.2V17.4h1.9v10.8h-1.9zM87.1 26.7l1.1-1.5c.7.8 1.9 1.5 3.4 1.5 1.6 0 2.2-.8 2.2-1.5 0-2.3-6.3-.9-6.3-4.8 0-1.8 1.6-3.2 3.9-3.2 1.7 0 3.1.6 4 1.5l-1.1 1.4c-.9-.9-2-1.3-3.2-1.3-1.1 0-1.8.6-1.8 1.3 0 2 6.3.8 6.3 4.8 0 1.8-1.3 3.4-4.2 3.4-1.8.1-3.3-.6-4.3-1.6zM97.9 28.2V17.4h4.8c2.3 0 3.5 1.5 3.5 3.4 0 1.8-1.3 3.4-3.5 3.4h-2.9v4.1l-1.9-.1zm6.3-7.4c0-1-.8-1.7-1.8-1.7h-2.6v3.4h2.6c1.1 0 1.8-.7 1.8-1.7zM107.7 22.8c0-3.2 2.3-5.6 5.5-5.6s5.5 2.4 5.5 5.6-2.3 5.6-5.5 5.6-5.5-2.3-5.5-5.6zm9.2 0c0-2.2-1.4-3.9-3.6-3.9s-3.6 1.7-3.6 3.9 1.4 3.9 3.6 3.9c2.1 0 3.6-1.6 3.6-3.9zM128.6 28.2l-5.7-7.8v7.8H121V17.4h2l5.5 7.5v-7.5h1.9v10.8h-1.8zM133.1 28.2V17.4h1.9v10.8h-1.9zM137.7 28.2V17.4h5.3c2 0 3.1 1.2 3.1 2.8 0 1.3-.9 2.3-1.9 2.5 1.2.2 2.1 1.3 2.1 2.6 0 1.7-1.1 2.9-3.2 2.9h-5.4zm6.5-7.7c0-.8-.6-1.4-1.5-1.4h-3.1v2.8h3.1c1 0 1.5-.6 1.5-1.4zm.2 4.6c0-.8-.6-1.5-1.6-1.5h-3.1v3h3.1c1 0 1.6-.6 1.6-1.5zM148.6 28.2V17.4h1.9v9.2h4.8v1.7l-6.7-.1zM157.3 28.2V17.4h7.4v1.7h-5.5v2.8h5.4v1.7h-5.4v3h5.5v1.7l-7.4-.1zM171 26.7l1.1-1.5c.7.8 1.9 1.5 3.4 1.5 1.6 0 2.2-.8 2.2-1.5 0-2.3-6.3-.9-6.3-4.8 0-1.8 1.6-3.2 3.9-3.2 1.7 0 3.1.6 4 1.5l-1.1 1.4c-.9-.9-2-1.3-3.2-1.3-1.1 0-1.8.6-1.8 1.3 0 2 6.3.8 6.3 4.8 0 1.8-1.3 3.4-4.2 3.4-1.9.1-3.3-.6-4.3-1.6zM181.7 23.9v-6.6h1.9v6.5c0 1.7 1 2.8 2.8 2.8 1.8 0 2.8-1.1 2.8-2.8v-6.5h1.9v6.6c0 2.7-1.5 4.5-4.7 4.5-3.1 0-4.7-1.8-4.7-4.5zM200 28.2l-2.4-4h-1.9v4h-1.9V17.4h4.8c2.1 0 3.6 1.4 3.6 3.4 0 1.9-1.3 3-2.6 3.2l2.7 4.3H200zm.2-7.4c0-1-.8-1.7-1.9-1.7h-2.6v3.4h2.6c1.1 0 1.9-.7 1.9-1.7z"/></svg><svg viewBox="0 0 17 15.6" id="icon-linkedin"><path d="M3.7 15.6H.4V5h3.3v10.6zM2 3.7c-1.2 0-2-.8-2-1.8C0 .8.8 0 2 0s2 .8 2 1.8c0 1.1-.8 1.9-2 1.9zm15 11.9h-3.8v-5.5c0-1.4-.6-2.4-1.9-2.4-1 0-1.5.7-1.8 1.3V15.6H5.8V5h3.7v1.7c.2-.7 1.4-1.8 3.3-1.8 2.4 0 4.2 1.5 4.2 4.8v5.9z"/></svg><svg id="icon-location" viewBox="0 0 19.5 27"><style>.atst0{fill:#231f20}</style><path class="atst0" d="M9.8 0C4 0 0 4.7 0 10.5 0 16.8 9.8 27 9.8 27s9.7-9.8 9.7-16.5C19.5 4.7 15.6 0 9.8 0zm0 13.3C7.7 13.3 6 11.7 6 9.6s1.7-3.8 3.8-3.8c2.1 0 3.8 1.7 3.8 3.8-.1 2.1-1.7 3.7-3.8 3.7z"/></svg><svg id="icon-megaphone" viewBox="0 0 60 50"><style>.aust0{fill:#231f20}</style><path class="aust0" d="M28.7 50c-.1 0-.3 0-.4-.1C22 46.8 18 39.7 18 32V10.8c0-.6.4-1 1-1s1 .4 1 1V32c0 6.9 3.7 13.4 9.2 16.1.5.2.7.8.4 1.3-.1.4-.5.6-.9.6zM55 27h-2c-.6 0-1-.4-1-1V16c0-.6.4-1 1-1h2c2.7 0 5 2.3 5 5v2.5c0 2.5-2.2 4.5-5 4.5zm-1-2h1c1.5 0 3-.9 3-2.5V20c0-1.5-1.5-3-3-3h-1v8z"/><path class="aust0" d="M53 42.4c-.2 0-.3 0-.4-.1l-1.8-.9C41.1 36.6 32 32 11 32H8c-4.7 0-8-3.3-8-8v-5c0-5 3.5-9 8-9h3c21.9 0 31.1-4.6 41-9.5l.6-.3c.3-.2.7-.1 1 0 .2.2.4.5.4.9v40.3c0 .3-.2.7-.5.8-.1.2-.3.2-.5.2zM8 12c-3.8 0-6 3.6-6 7v5c0 3.6 2.4 6 6 6h3c21.4 0 31.2 4.9 40.7 9.6l.3.2V2.7C42.3 7.5 32.7 12 11 12H8z"/></svg><svg id="icon-pig" viewBox="0 0 60 52"><style>.avst0{fill:#010101}</style><path class="avst0" d="M42 16c-.2 0-.4-.1-.6-.2-3.5-2.7-8.1-4.1-12.3-3.8-.6 0-1-.4-1.1-.9s.4-1 .9-1.1c4.7-.3 9.8 1.3 13.7 4.2.4.3.5 1 .2 1.4-.2.3-.5.4-.8.4zM54 26c-.6 0-1-.4-1-1s.4-1 1-1c2.2 0 4-1.8 4-4 0-.6.4-1 1-1s1 .4 1 1c0 3.4-2.6 6-6 6z"/><path class="avst0" d="M30 46c-10.7 0-18.9-4.4-22.6-12H1c-.6 0-1-.4-1-1V23c0-.6.4-1 1-1h4.2c1-5.5 4.6-10.6 9.8-13.9-.5-2.1-1.8-3.9-3.7-5-.3-.2-.5-.5-.5-.9s.2-.7.5-.9c2.3-1.3 4.9-1.7 7.5-1 2.3.6 4.3 2 5.6 4C26.2 4 28.1 4 30 4c13.8 0 25 9.4 25 20.9C55 36.5 43.8 46 30 46zM2 32h6c.4 0 .8.2.9.6C12.1 39.8 19.8 44 30 44c12.7 0 23-8.6 23-19.1C53 14.5 42.7 6 30 6c-2.1 0-4.1 0-6 .5-.4.1-.9-.1-1.1-.5-1-1.8-2.7-3.2-4.8-3.7-1.5-.4-3-.4-4.5.1 1.8 1.5 3 3.7 3.3 6 .1.4-.1.8-.5 1-5.2 3.2-8.8 8.3-9.6 13.7.1.5-.3.9-.8.9H2v8z"/><path class="avst0" d="M21 52c-.6 0-1-.4-1-1v-7.2c0-.6.4-1 1-1s1 .4 1 1V51c0 .6-.4 1-1 1zM39 52c-.6 0-1-.4-1-1v-7.5c0-.6.4-1 1-1s1 .4 1 1V51c0 .6-.4 1-1 1zM16 24c-1.7 0-3-1.3-3-3s1.3-3 3-3 3 1.3 3 3-1.3 3-3 3zm0-4c-.6 0-1 .4-1 1s.4 1 1 1 1-.4 1-1-.4-1-1-1z"/></svg><svg id="icon-play" viewBox="0 0 20 20"><style>.awst0{fill-rule:evenodd;clip-rule:evenodd}</style><path class="awst0" d="M8.1 5.4l5.5 4.5-5.5 4.5v-9z"/><path d="M10 20C4.5 20 0 15.5 0 10S4.5 0 10 0s10 4.5 10 10-4.5 10-10 10zm0-19c-5 0-9 4-9 9s4 9 9 9 9-4 9-9-4-9-9-9z"/></svg><svg viewBox="0 0 143.6 204.4" id="icon-riiot-lab-footer"><path d="M28.4 104.7h86.9v2.3H28.4zM28.4 126h7.3c3.9 0 7.1 1.3 7.1 5.7 0 2.6-1.4 4.7-4.1 5.2l4.8 8h-5l-4-7.6h-2.1v7.6h-4.2V126zm4.2 7.8H35c1.5 0 3.5-.1 3.5-2.1 0-1.9-1.7-2.2-3.2-2.2h-2.7v4.3zM50.4 126h4.2v18.9h-4.2V126zM62.9 126h4.2v18.9h-4.2V126zM84.7 125.5c5.9 0 10.2 3.9 10.2 9.9 0 6.1-4.3 9.9-10.2 9.9-5.9 0-10.2-3.9-10.2-9.9s4.3-9.9 10.2-9.9zm0 16c3.6 0 5.9-2.6 5.9-6.1 0-3.5-2.3-6.1-5.9-6.1-3.6 0-5.9 2.6-5.9 6.1 0 3.6 2.3 6.1 5.9 6.1zM105.7 129.7h-5.4V126h15v3.7h-5.4v15.2h-4.2v-15.2zM28.9 157.1h2.6v16.5h8.7v2.4H28.9v-18.9zM54 171.4l-1.9 4.7h-3l8.3-18.9h2.3l8.1 18.9h-3l-1.9-4.7m-.9-2.3l-3.5-8.7h-.1l-3.6 8.7M77.9 157.1h6.6c3.3 0 5.7 1.5 5.7 4.7 0 2.2-1.3 3.5-3.3 4.2v.1c2.3.2 4.1 2.2 4.1 4.7 0 3.4-3 5.3-6.7 5.3h-6.5v-19zm2.6 7.9H84c2 0 3.5-.8 3.5-2.8 0-1.5-.9-2.8-3-2.8h-4v5.6zm0 8.8h3.8c1.6 0 4.1-.5 4.1-3.2 0-2.2-1.6-3.4-4.1-3.4h-3.8v6.6zM102.8 172.1c.9 1.4 2.5 2 4 2 1.7 0 3.8-1.1 3.8-3.2 0-4.4-9.3-1.7-9.3-9 0-2.2 1.9-5.3 6.4-5.3 2.1 0 4 .4 5.5 2.2l-2.1 1.9c-.6-1-1.9-1.7-3.4-1.7-2.8 0-3.7 1.7-3.7 2.9 0 4.8 9.3 1.9 9.3 8.7 0 3.7-2.9 5.9-6.6 5.9-2.4 0-4.8-.8-6-2.6l2.1-1.8zM99.8 85.7h-10l-9.3-12.1c-2.3.7-4.7 1.1-7.1 1.1-5.4 0-10.8-1.3-15.6-3.7v14.7h-7.9V65.6C42.6 59 38.4 49.5 38.4 39.7h2.5c0 9.3 4 18.2 11.1 24.4l.4.4v18.8h3V66.8l1.8 1.1c4.9 2.8 10.5 4.3 16.2 4.3 2.4 0 4.8-.4 7.1-1.2l.8-.3L91 83.3h3.8l-10.7-14 1.1-.7c5.6-3.9 8.9-10.2 8.9-17 0-11.4-9.3-20.7-20.7-20.7h-21v29.8l-2.2-2.8c-4.1-5.3-6.3-11.5-6.3-18.2h2.5c0 4.8 1.2 9.4 3.6 13.4V28.4h23.5c12.8 0 23.1 10.4 23.1 23.1 0 7.2-3.3 13.9-9 18.3l12.2 15.9zM73.5 69.2c-6.4 0-12.4-2-17.5-5.8l-.6-.4V33.9h18c9.7 0 17.7 7.9 17.7 17.7s-7.9 17.6-17.6 17.6zm-15.6-7.4c4.6 3.2 10 4.9 15.6 4.9 8.4 0 15.2-6.8 15.2-15.2s-6.8-15.2-15.2-15.2H57.9v25.5z"/><path d="M56 70c-3.6-2.2-5.6-4-5.7-4.1l1.7-1.8-.8.9.8-.9s1.9 1.7 5.3 3.8L56 70zM56 63.5c-3.9-2.4-5.8-5.6-5.9-5.8l2.1-1.2s1.7 2.9 5 4.9L56 63.5z"/><path d="M61.6 72.8C48.1 69.7 41.5 62 38.3 56.2c-3.4-6.4-3.6-12-3.7-12.2v-.5l3.8-3.9 4-4 3.9 3.9-1.7 1.7-2.2-2.2-2.2 2.2-3 3.1c.3 3.3 2.8 20.9 25 26l-.6 2.5zM73.5 69.2c-1 0-2.1-.1-3.2-.2v-2.4c7.4-1.1 13-7.5 13-15 0-8.4-6.8-15.2-15.2-15.2v-2.5h5.5c9.7 0 17.7 7.9 17.7 17.7v1c-.7 9.3-8.5 16.6-17.8 16.6zM78.1 37c4.6 3.2 7.6 8.5 7.6 14.5 0 5.9-3 11.3-7.6 14.5 5.9-1.9 10.2-7.2 10.6-13.6v-.1-.8c0-6.7-4.5-12.5-10.6-14.5zM90.5 85.7h-6.7L75.2 74l1.9-1.5L85 83.2h5.5zM60.6 35.6h2.5V65h-2.5z"/><path d="M63.1 85.7h-6.5v-2.5h4V71.6h2.5z"/><g><path d="M141.6 2v200.4H2V2h139.6m2-2H0v204.4h143.6V0z"/></g></svg><svg viewBox="0 0 65 57" id="icon-riiot-labs"><path d="M52.8 41.2c5.6-4.4 8.9-11.1 8.9-18.2 0-12.7-10.3-23-23.1-23H15.3v24.6c-2.3-4-3.6-8.6-3.6-13.3h-.1l.1-.1-4-4-3.9 3.9L0 15v.5c0 .2.2 5.8 3.6 12.1 2.1 3.8 5.6 8.4 11.6 12V57H28.3V44.5c3.3 1 6.8 1.6 10.3 1.6.7 0 1.4 0 2.1-.1L49 57h16L52.8 41.2zM2.5 15.9l1.4-1.5c.8 8.2 4.5 16 10.5 21.8C4.2 29 2.7 18.4 2.5 15.9zm15.2 38.7V40.9c.9.5 1.9.9 3 1.3v12.3h-3zm5.5 0V43.1c.9.3 1.8.5 2.8.8v10.6h-2.8zm27 0l-6.7-9c.7-.2 1.5-.3 2.2-.6l7.4 9.6h-2.9zM46.6 42l-.8.3c-2.3.8-4.6 1.2-7.1 1.2-5.7 0-11.2-1.5-16.1-4.3-2.6-1.5-4.3-2.9-4.9-3.5l-.3-.3c-6.8-6-10.8-14.5-11-23.4l1.5-1.5L9.4 12c.2 6.2 2.3 12.1 6.2 17 .1.2.8 1.3 2 2.6l.2.3v.1c.9.9 2.1 1.9 3.6 2.8 4.2 3.1 9.1 5 14.2 5.5h.4c.3 0 .5 0 .8.1.7 0 1.3.1 2 .1.6 0 1.2 0 1.8-.1.2 0 .4-.1.6-.1.4-.1.8-.1 1.1-.2.2 0 .4-.1.7-.2.3-.1.7-.2 1-.3.2-.1.4-.2.7-.2l.9-.3.6-.3c.3-.1.6-.3.9-.4l.6-.3c.3-.2.6-.3.9-.5.2-.1.4-.3.5-.4.3-.2.5-.4.8-.6.2-.1.3-.3.5-.4.3-.2.5-.4.7-.7l.5-.5.7-.7c.1-.2.3-.4.4-.5.2-.3.4-.5.6-.8.1-.2.3-.4.4-.6.2-.3.3-.5.5-.8.1-.2.2-.5.4-.7.1-.3.3-.5.4-.8.1-.3.2-.5.3-.8.1-.3.2-.5.3-.8l.3-.9c.1-.2.1-.5.2-.8.1-.3.1-.6.2-.9 0-.3.1-.5.1-.8 0-.3.1-.6.1-.9v-.5-.9c0-9.7-7.9-17.6-17.6-17.6H20.7v26c-1.6-1.4-2.6-2.7-3-3.3V2.4h21c11.4 0 20.6 9.2 20.6 20.6 0 6.7-3.3 13.1-8.9 16.9l-1.1.7 10.7 14h-3.8L46.6 42zM44.5 9.1c.1 0 .2.1.3.1.3.1.6.3.9.4.1.1.3.1.4.2.3.2.5.3.8.5.1.1.3.2.4.3.3.2.5.4.8.6.1.1.2.1.3.2.3.3.7.6 1 .9l.2.2c.3.3.5.5.7.8l.3.3c.2.2.4.5.6.7.1.1.2.3.3.4.2.3.3.5.5.8.1.1.1.2.2.3l.6 1.2c0 .1 0 .1.1.2.2.4.3.7.4 1.1 0 .1.1.3.1.4.1.3.2.6.2.9 0 .2.1.3.1.5.1.3.1.6.1 1 0 .1 0 .3.1.4 0 .5.1.9.1 1.4 0 .4 0 .8-.1 1.2 0 .2 0 .4-.1.5 0 .3-.1.6-.1.9 0 .1 0 .3-.1.4-.1.4-.2.9-.3 1.3 0 .1-.1.2-.1.3-.1.4-.2.7-.4 1 0 .1-.1.2-.1.3-.1.3-.3.7-.5 1 0 .1-.1.2-.1.2-.4.8-1 1.6-1.5 2.3 0 .1-.1.1-.1.2-.2.3-.5.6-.8.9l-.2.2-.9.9h-.1c-.4.3-.7.6-1.1.8-.1 0-.1.1-.2.1-.3.2-.6.4-1 .6-.1.1-.2.1-.3.2-.3.2-.6.3-.9.4-.1 0-.2.1-.3.1-.4.2-.8.3-1.2.4 4.6-3.2 7.6-8.5 7.6-14.4s-3-11.2-7.5-14.4c.1.5.5.6.9.8zM48.4 23c0 7.4-5.5 13.8-12.8 14.9-2.5-.3-4.9-.9-7.2-1.9V7.9h4.9c8.3 0 15.1 6.8 15.1 15.1zM25.9 34.9c-.9-.5-1.9-1.1-2.8-1.7V7.9h2.8v27z"/></svg><svg viewBox="54 71.9 703.8 696.2" id="icon-rss"><path d="M237.8 676.9c0 51.2-42.5 91.2-92.5 91.2S54 728.1 54 676.9c0-50 41.2-91.2 91.2-91.2s92.6 41.2 92.6 91.2zm261.2 85H374c0-173.8-140-322.5-315-322.5V320.6c231.2 0 440 163.8 440 441.3zm258.8 0H621.5c0-300-261.2-561.2-562.5-561.2V71.9c370 0 698.8 281.2 698.8 690z"/></svg><svg id="icon-stats" viewBox="0 0 60 60"><style>.bast0{fill:#010101}</style><path class="bast0" d="M9 54c-.6 0-1-.4-1-1v-4c0-.6.4-1 1-1s1 .4 1 1v4c0 .6-.4 1-1 1zM25 54c-.6 0-1-.4-1-1v-4c0-.6.4-1 1-1s1 .4 1 1v4c0 .6-.4 1-1 1zM41 54c-.6 0-1-.4-1-1v-4c0-.6.4-1 1-1s1 .4 1 1v4c0 .6-.4 1-1 1zM17 54c-.6 0-1-.4-1-1v-8c0-.6.4-1 1-1s1 .4 1 1v8c0 .6-.4 1-1 1zM33 54c-.6 0-1-.4-1-1v-8c0-.6.4-1 1-1s1 .4 1 1v8c0 .6-.4 1-1 1zM49 54c-.6 0-1-.4-1-1v-8c0-.6.4-1 1-1s1 .4 1 1v8c0 .6-.4 1-1 1zM35 37c-.4 0-.8-.3-1-.7L26.9 14l-5 13.3c-.1.4-.5.7-.9.7s-.8-.2-.9-.6l-4.3-10.2-4 6.4c-.1.2-.5.4-.8.4H1v-2h9.4l4.7-7.5c.2-.3.5-.5.9-.5s.7.3.8.6l4 9.7 5.1-13.6c.1-.4.5-.7 1-.6.4 0 .8.3.9.7l6.8 21.4L40 6.8c.1-.4.5-.8.9-.8s.9.2 1 .6L47.7 22H59v2H47c-.4 0-.8-.3-.9-.6l-4.8-12.8L36 36.2c-.1.4-.5.8-1 .8z"/><path class="bast0" d="M53 60H7c-3.9 0-7-3.1-7-7V7c0-3.9 3.1-7 7-7h46c3.9 0 7 3.1 7 7v46c0 3.9-3.1 7-7 7zM7 2C4.2 2 2 4.2 2 7v46c0 2.8 2.2 5 5 5h46c2.8 0 5-2.2 5-5V7c0-2.8-2.2-5-5-5H7z"/></svg><svg id="icon-status" viewBox="0 0 28.9 31.1"><style>.bbst0{fill:#231f20}</style><path class="bbst0" d="M16.7 16.9c3.6-1 6.3-4.3 6.3-8.3C23 3.8 19.2 0 14.4 0S5.9 3.8 5.9 8.6c0 4 2.7 7.3 6.3 8.3C5.3 18 0 23.9 0 31.1h28.9c0-7.2-5.3-13.1-12.2-14.2z"/></svg><svg viewBox="0 0 15 12.2" id="icon-twitter"><path d="M15 1.4c-.6.2-1.1.4-1.8.5.6-.4 1.1-1 1.4-1.7-.6.4-1.3.6-2 .7-.6-.6-1.4-1-2.3-1-1.6.1-3 1.5-3 3.2 0 .2 0 .5.1.7C4.8 3.7 2.6 2.4 1 .6c-.2.4-.4.9-.4 1.5 0 1.1.5 2 1.4 2.6-.5 0-1-.2-1.4-.4 0 1.5 1.1 2.7 2.5 3-.3.1-.6.2-.8.2-.2 0-.4 0-.6-.1.4 1.2 1.5 2.1 2.9 2.1-1.1.8-2.4 1.3-3.8 1.3H.1c1.4.9 3 1.4 4.7 1.4 5.7 0 8.8-4.7 8.8-8.8V3c.5-.4 1-.9 1.4-1.6"/></svg><svg id="icon-type" viewBox="0 0 25.1 25.4"><style>.bdst0{fill:#231f20}</style><path class="bdst0" d="M25.1 22.4l-9.2-9.3c.8-1.3 1.3-2.8 1.3-4.5 0-4.7-3.8-8.6-8.6-8.6S0 3.8 0 8.6c0 4.7 3.8 8.6 8.6 8.6 1.6 0 3-.4 4.3-1.2l9.3 9.3 2.9-2.9zM3 8.6C3 5.5 5.5 3 8.6 3s5.6 2.5 5.6 5.6-2.5 5.6-5.6 5.6S3 11.7 3 8.6z"/></svg><svg id="icon-work" viewBox="0 0 23.2 21.8"><style>.best0{fill:#231f20}</style><path class="best0" d="M20.4 5.3h-2.8V3.5C17.6 1.6 16 0 14.1 0h-5C7.2 0 5.6 1.6 5.6 3.5v1.8H2.8C1.3 5.3 0 6.6 0 8.1V19c0 1.5 1.3 2.8 2.8 2.8h17.6c1.5 0 2.8-1.3 2.8-2.8V8.1c0-1.5-1.2-2.8-2.8-2.8zM8.1 3.5c0-.6.5-1 1-1H14c.6 0 1 .5 1 1v1.8H8V3.5z"/></svg></defs></svg>